<svg width="20" height="20" viewBox="0 0 20 20" fill="none" xmlns="http://www.w3.org/2000/svg">
<path d="M10 19C5.02944 19 1 14.9706 1 10C1 5.02944 5.02944 1 10 1C14.9706 1 19 5.02944 19 10C19 14.9706 14.9706 19 10 19Z" fill="#28A745"/>
<path d="M10 19C5.02944 19 1 14.9706 1 10C1 5.02944 5.02944 1 10 1C14.9706 1 19 5.02944 19 10C19 14.9706 14.9706 19 10 19Z" stroke="white" stroke-width="2"/>
<mask id="mask0_844_1143" style="mask-type:alpha" maskUnits="userSpaceOnUse" x="4" y="4" width="12" height="12">
<g clip-path="url(#clip0_844_1143)">
<g clip-path="url(#clip1_844_1143)">
<path d="M9.64375 10.8282H13.8287C14.2894 10.8282 14.5 10.4571 14.5 10.1738L14.5 9.85795C14.5 9.5746 14.2894 9.2028 13.8287 9.2028H9.64375V7.60395C9.64375 6.9291 8.96195 6.71935 8.41455 7.10625L5.7737 9.511C5.40875 9.76295 5.40875 10.2398 5.7737 10.5007L8.41455 12.8921C8.97155 13.288 9.64375 13.0565 9.64375 12.4087V10.8282Z" fill="black"/>
</g>
</g>
</mask>
<g mask="url(#mask0_844_1143)">
<rect width="12" height="12" transform="translate(4 4)" fill="white"/>
</g>
<defs>
<clipPath id="clip0_844_1143">
<rect width="12" height="12" fill="white" transform="matrix(-1 0 0 -1 16 16)"/>
</clipPath>
<clipPath id="clip1_844_1143">
<rect width="12" height="12" fill="white" transform="matrix(-1 0 0 -1 16 16)"/>
</clipPath>
</defs>
</svg>
