<svg width="182" height="165" viewBox="0 0 182 165" fill="none" xmlns="http://www.w3.org/2000/svg">
<path d="M153.833 134.834C153.833 134.834 152.192 131.909 152.487 129.692C152.783 127.476 152.797 125.673 155.176 123.057C157.555 120.442 159.505 119.348 164.367 118.417C169.228 117.485 170.883 118.608 173.927 119.465C176.971 120.322 178.759 122.139 178.759 122.139C178.759 122.139 176.528 123.646 174.711 125.435C172.893 127.223 171.49 129.291 170.648 130.533C169.806 131.774 174.933 132.232 174.933 132.232C174.933 132.232 171.564 137.197 166.984 137.714C162.403 138.232 157.423 136.666 157.423 136.666L153.833 134.834Z" fill="black"/>
<path d="M153.833 134.834C153.833 134.834 152.192 131.909 152.487 129.692C152.783 127.476 152.797 125.673 155.176 123.057C157.555 120.442 159.505 119.348 164.367 118.417C169.228 117.485 170.883 118.608 173.927 119.465C176.971 120.322 178.759 122.139 178.759 122.139C178.759 122.139 176.528 123.646 174.711 125.435C172.893 127.223 171.49 129.291 170.648 130.533C169.806 131.774 174.933 132.232 174.933 132.232C174.933 132.232 171.564 137.197 166.984 137.714C162.403 138.232 157.423 136.666 157.423 136.666L153.833 134.834ZM153.833 134.834C153.833 134.834 155.931 132.633 158.575 131.406C161.22 130.179 164.264 131.036 164.264 131.036" stroke="black" stroke-width="3"/>
<path d="M135.333 141.618C135.333 141.618 141.554 144.026 143.638 143.627C144.616 143.439 147.238 142.444 149.489 140.346C151.74 138.248 153.833 134.834 153.833 134.834L157.423 136.666C157.423 136.666 156.98 139.991 154.173 144.128C151.366 148.266 150.243 149.921 147.037 151.975C143.831 154.029 138.423 153.986 136.487 153.277C134.551 152.567 130.827 150.041 130.827 150.041L133.634 145.903L135.333 141.618Z" fill="white" stroke="black" stroke-width="3"/>
<path d="M85.1631 111.945H69.1632C69.1632 111.945 66.1632 112.945 65.1632 116.945C64.1632 120.945 66.1632 125.945 66.1632 125.945C69.3429 129.443 70.913 131.445 76.1631 131.445C82.203 131.445 85.2059 128.031 88.6631 123.945C88.6631 123.945 89.6631 119.945 88.6631 116.945C87.6631 113.945 85.1631 111.945 85.1631 111.945Z" fill="#F5A161"/>
<path d="M29.5815 106.5C29.5815 106.5 28.5 99.0004 25.5 97.5004C22.5 96.0004 15.5815 97.5004 15.5815 97.5004C15.5815 97.5004 9 98.0004 9 102C9 106 16.5 110.445 16.5 110.445L22.5815 108L29.5815 106.5Z" fill="black"/>
<path d="M23.5815 136.945C23.5815 136.945 26.5815 142.445 27.0815 147.945C27.5814 153.445 27.0815 161.445 27.0815 161.445H49.5814H66.5814H78.5814H93.0814H110.581C110.581 161.445 107.581 158.445 107.081 155.445C106.581 152.445 107.081 148.945 108.581 146.445C110.778 142.784 115.231 139.945 119.581 139.945C122.581 139.945 124.581 141.945 125.081 144.445C125.581 146.945 125.581 151.445 125.081 153.445C124.581 155.445 118.581 161.445 118.581 161.445H126.081C126.081 161.445 133.081 154.945 133.581 151.945C134.081 148.945 134.081 143.945 133.081 141.945C132.081 139.945 129.581 138.445 128.581 135.945C127.581 133.445 127 123 126 120C126 120 133 120 138.5 119C144 118 149.5 106 149.5 106L144.75 100.75L142 98.0004L131 103.5L119.581 99.0004C119.581 99.0004 116.163 100.945 110.163 104.445C104.163 107.945 94.6631 109.945 94.6631 109.945L85.1631 111.945C85.1631 111.945 87.6631 113.945 88.6631 116.945C89.6631 119.945 88.6631 123.945 88.6631 123.945C85.2059 128.031 82.203 131.445 76.1631 131.445C70.913 131.445 69.3429 129.443 66.1632 125.945C66.1632 125.945 64.1632 120.945 65.1632 116.945C66.1632 112.945 69.1632 111.945 69.1632 111.945C69.1632 111.945 61.6632 110.945 58.1632 110.445C54.6632 109.945 48.1632 107.445 48.1632 107.445C48.1632 107.445 42.5815 109 37.0815 109C31.5815 109 29.5815 106.5 29.5815 106.5L22.5815 108L16.5 110.445C16.5 110.445 24.0814 119.5 27.0815 122.5C30.0815 125.501 44.5 125.945 44.5 125.945V136.5L23.5815 136.945Z" fill="white"/>
<path d="M147.5 90.5004C144.75 92.0004 142 98.0004 142 98.0004L144.75 100.75L149.5 106C149.5 106 160 104.445 160.5 100.5C161 96.556 157 94.0004 157 94.0004C157 94.0004 150.25 89.0004 147.5 90.5004Z" fill="black"/>
<path d="M125.081 144.445C124.581 141.945 122.581 139.945 119.581 139.945C115.231 139.945 110.778 142.784 108.581 146.445C107.081 148.945 106.581 152.445 107.081 155.445C107.581 158.445 110.581 161.445 110.581 161.445H118.581C118.581 161.445 124.581 155.445 125.081 153.445C125.581 151.445 125.581 146.945 125.081 144.445Z" fill="black"/>
<path d="M12.0815 146.945C11.0815 155.445 19.5814 159.945 21.5815 160.445C23.5815 160.945 27.0815 161.445 27.0815 161.445C27.0815 161.445 27.5814 153.445 27.0815 147.945C26.5815 142.445 23.5815 136.945 23.5815 136.945C23.5815 136.945 13.0815 138.445 12.0815 146.945Z" fill="black"/>
<path d="M23.5815 136.945C23.5815 136.945 13.0815 138.445 12.0815 146.945C11.0815 155.445 19.5814 159.945 21.5815 160.445C23.5815 160.945 27.0815 161.445 27.0815 161.445M23.5815 136.945C23.5815 136.945 26.5815 142.445 27.0815 147.945C27.5814 153.445 27.0815 161.445 27.0815 161.445M23.5815 136.945L44.5 136.5V125.945M27.0815 161.445H49.5814H66.5814H78.5814H93.0814H110.581M126 120C127 123 127.581 133.445 128.581 135.945C129.581 138.445 132.081 139.945 133.081 141.945C134.081 143.945 134.081 148.945 133.581 151.945C133.081 154.945 126.081 161.445 126.081 161.445H118.581M126 120C126 120 133 120 138.5 119C144 118 149.5 106 149.5 106M126 120L120.5 118M85.1631 111.945L94.6631 109.945C94.6631 109.945 104.163 107.945 110.163 104.445C116.163 100.945 119.581 99.0004 119.581 99.0004L131 103.5L142 98.0004M85.1631 111.945H69.1632M85.1631 111.945C85.1631 111.945 87.6631 113.945 88.6631 116.945C89.6631 119.945 88.6631 123.945 88.6631 123.945C85.2059 128.031 82.203 131.445 76.1631 131.445C70.913 131.445 69.3429 129.443 66.1632 125.945C66.1632 125.945 64.1632 120.945 65.1632 116.945C66.1632 112.945 69.1632 111.945 69.1632 111.945M69.1632 111.945C69.1632 111.945 61.6632 110.945 58.1632 110.445C54.6632 109.945 48.1632 107.445 48.1632 107.445C48.1632 107.445 42.5815 109 37.0815 109C31.5815 109 29.5815 106.5 29.5815 106.5M118.581 161.445C118.581 161.445 124.581 155.445 125.081 153.445C125.581 151.445 125.581 146.945 125.081 144.445C124.581 141.945 122.581 139.945 119.581 139.945C115.231 139.945 110.778 142.784 108.581 146.445C107.081 148.945 106.581 152.445 107.081 155.445C107.581 158.445 110.581 161.445 110.581 161.445M118.581 161.445H110.581M29.5815 106.5L22.5815 108L16.5 110.445M29.5815 106.5C29.5815 106.5 28.5 99.0004 25.5 97.5004C22.5 96.0004 15.5815 97.5004 15.5815 97.5004C15.5815 97.5004 9 98.0004 9 102C9 106 16.5 110.445 16.5 110.445M16.5 110.445C16.5 110.445 24.0814 119.5 27.0815 122.5C30.0815 125.501 44.5 125.945 44.5 125.945M49.5814 125.945H44.5M142 98.0004C142 98.0004 144.75 92.0004 147.5 90.5004C150.25 89.0004 157 94.0004 157 94.0004C157 94.0004 161 96.556 160.5 100.5C160 104.445 149.5 106 149.5 106M142 98.0004L144.75 100.75L149.5 106" stroke="black" stroke-width="5" stroke-linecap="round"/>
<path d="M106.994 117.621C103.742 117.532 99.8865 122.064 99.7519 127.062C99.6174 132.06 101.063 134.1 103.522 135.667C105.98 137.234 111.494 136.065 111.494 136.065C111.494 136.065 115.746 135.667 116.746 131.709C117.746 127.752 116.246 120.209 114.746 118.709C113.246 117.209 110.246 117.709 106.994 117.621Z" fill="#F5A161"/>
<path d="M55 132.001C51.748 131.912 48.1345 141.358 48 146.357C47.8654 151.355 49.311 153.394 51.7697 154.961C54.2285 156.528 59.7423 156.001 59.7423 156.001C59.7423 156.001 67.5 155.958 68.5 152.001C69.5 148.043 64.5 142.501 63 141.001C61.5 139.501 58.2519 132.09 55 132.001Z" fill="#F5A161"/>
<path d="M49.5 104.017C54 106.517 54.5 107.017 64.5 109.017C74.5 111.017 81.5192 109.517 84.5 109.017C84.5 109.017 90.5 107.017 93.5 105.017C96.5 103.017 106 95.5169 104.5 87.5169C103 79.5169 100 77.5169 94 74.0169C88 70.5169 81 69.0169 74 69.0169C67 69.0169 59.5 70.0169 54.5 72.5169C49.5 75.0169 43 80.5169 42.5 87.5169C42 94.5169 49.5 104.017 49.5 104.017Z" fill="#F5A161"/>
<path d="M7 70.5168C7.88284 71.1955 8.89558 71.7779 10 72.2618C14.0592 74.0405 14.7732 74 19 74C21.7722 74 26.4623 73.1607 27.5 72.9799C31.4446 72.2926 35.0192 71.5168 35.0192 71.5168C35.1247 70.6781 35.2824 69.6041 35.4484 68.473C35.6446 67.136 35.8526 65.7192 36 64.5168C36.4002 61.2523 37.2263 56.9886 38.1321 53.0168C38.1321 53.0168 31.5 57.5168 27 58.5168C22.5 59.5169 18 61.0168 14 62.5168C10 64.0168 8.79577 65.3315 4.5 68.4165C5.10734 69.0509 5.92535 69.6906 7 70.5168Z" fill="#F5A161"/>
<path d="M123 54.0168C123 54.0168 124.5 60.5168 125.519 66.0168C125.968 68.4366 126.304 70.6628 126.5 72.8232C126.5 72.8232 129 71.266 130 70.5724C133.507 68.1399 136.448 65.9768 141 66.0168C145.217 66.0539 149.5 66.0724 149.5 66.0724C146.5 63.5724 123 54.0168 123 54.0168Z" fill="#F5A161"/>
<path d="M35.5 85.0169C36.4807 93.0169 45 101.517 49.5 104.017C49.5 104.017 42 94.5169 42.5 87.5169C43 80.5169 49.5 75.0169 54.5 72.5169C59.5 70.0169 67 69.0169 74 69.0169C81 69.0169 88 70.5169 94 74.0169C100 77.5169 103 79.5169 104.5 87.5169C106 95.5169 96.5 103.017 93.5 105.017C90.5 107.017 84.5 109.017 84.5 109.017C84.9251 108.946 85.5238 108.854 86.2554 108.742C90.654 108.069 99.8556 106.66 105 104.517C106.174 104.028 107.177 103.653 108.082 103.315C111.805 101.925 113.889 101.147 119.519 95.5169C125.831 89.2055 126.045 86.5523 126.379 82.4266C126.415 81.9764 126.453 81.5087 126.5 81.0168C126.769 78.2166 126.749 75.5732 126.5 72.8232C126.304 70.6628 125.968 68.4366 125.519 66.0168C124.5 60.5168 123 54.0168 123 54.0168L119.519 41.5168C110.5 45.0168 99.5 30.0724 99 28.5724C98.5 27.0723 99 28.5723 96.5 26.0724C94 23.5724 86.5 22.0724 86.5 22.0724C86.5 22.0724 88.5 15.9135 86.5 12.4135C83.4838 7.13515 77 -0.0864769 73 4.41353C69 8.91353 73 17.4135 71.5 14.4135C70 11.4135 54.5 13.4135 54.5 19.4136C54.5 25.4136 62 26.0724 62 26.0724L54.5 29.0724L41.5192 41.5168C40.9273 42.1087 39.4459 47.2556 38.1321 53.0168C37.2263 56.9886 36.4002 61.2523 36 64.5168C35.8526 65.7192 35.6446 67.136 35.4484 68.473C35.2824 69.6041 35.1247 70.6781 35.0192 71.5168C34.4245 76.245 34.7855 79.1888 35.483 84.878L35.5 85.0169Z" fill="white"/>
<path d="M99 28.5724C99.5 30.0724 110.5 45.0168 119.519 41.5168C119.519 41.5168 126.5 36.0724 124 24.5724C122.832 19.1989 119.917 16.1179 117.143 14.3602C114.343 12.5862 111.449 15.3844 110.862 18.6466C110.611 20.0455 110.188 21.5589 109.5 23.0724C107 28.5724 99 28.5724 99 28.5724Z" fill="#F5A161"/>
<path d="M41.5192 41.5168L54.5 29.0724C54.5 29.0724 49.5 26.5724 47.5 22.0724C47.0598 21.082 46.7408 20.0916 46.5108 19.1492C45.7609 16.0762 42.9698 13.4182 40.2315 15.0017C37.4862 16.5891 34.7439 19.4505 34.5 24.5724C34 35.0724 41.5192 41.5168 41.5192 41.5168Z" fill="#F5A161"/>
<path d="M123 54.0168C123 54.0168 146.5 63.5724 149.5 66.0724C152.5 68.5724 152.065 71.0168 154 71.0168C156.481 71.0168 158.038 69.0168 157.519 64.5168C157 60.0168 155.038 57.0168 148.519 53.0168C142 49.0168 138.519 47.5168 132.019 45.0168C125.519 42.5168 119.519 41.5168 119.519 41.5168L123 54.0168Z" fill="black"/>
<path d="M41.5192 41.5168C41.5192 41.5168 31.5 43.0168 23.5 46.0168C15.5 49.0168 8 55.5168 6 57.5168C4 59.5168 3 61.0168 3 64.0168C3 66.1605 3.41189 67.28 4.5 68.4165C8.79577 65.3315 10 64.0168 14 62.5168C18 61.0168 22.5 59.5169 27 58.5168C31.5 57.5168 38.1321 53.0168 38.1321 53.0168C39.4459 47.2556 40.9273 42.1087 41.5192 41.5168Z" fill="black"/>
<path d="M41.5192 41.5168C41.5192 41.5168 31.5 43.0168 23.5 46.0168C15.5 49.0168 8 55.5168 6 57.5168C4 59.5168 3 61.0168 3 64.0168C3 66.1605 3.41189 67.28 4.5 68.4165M41.5192 41.5168C40.9273 42.1087 39.4459 47.2556 38.1321 53.0168M41.5192 41.5168L54.5 29.0724M41.5192 41.5168C41.5192 41.5168 34 35.0724 34.5 24.5724C34.7439 19.4505 37.4862 16.5891 40.2315 15.0017C42.9698 13.4182 45.7609 16.0762 46.5108 19.1492C46.7408 20.0916 47.0598 21.082 47.5 22.0724C49.5 26.5724 54.5 29.0724 54.5 29.0724M35.5 85.0169C36.4807 93.0169 45 101.517 49.5 104.017M35.5 85.0169L35.483 84.878M35.5 85.0169C35.4943 84.9704 35.4886 84.9241 35.483 84.878M49.5 104.017C54 106.517 54.5 107.017 64.5 109.017C74.5 111.017 81.5192 109.517 84.5 109.017M49.5 104.017C49.5 104.017 42 94.5169 42.5 87.5169C43 80.5169 49.5 75.0169 54.5 72.5169C59.5 70.0169 67 69.0169 74 69.0169C81 69.0169 88 70.5169 94 74.0169C100 77.5169 103 79.5169 104.5 87.5169C106 95.5169 96.5 103.017 93.5 105.017C90.5 107.017 84.5 109.017 84.5 109.017M84.5 109.017C84.9251 108.946 85.5238 108.854 86.2554 108.742C90.654 108.069 99.8556 106.66 105 104.517C106.174 104.028 107.177 103.653 108.082 103.315C111.805 101.925 113.889 101.147 119.519 95.5169C125.831 89.2055 126.045 86.5523 126.379 82.4266C126.415 81.9764 126.453 81.5087 126.5 81.0168C126.769 78.2166 126.749 75.5732 126.5 72.8232M123 54.0168C123 54.0168 124.5 60.5168 125.519 66.0168C125.968 68.4366 126.304 70.6628 126.5 72.8232M123 54.0168C123 54.0168 146.5 63.5724 149.5 66.0724M123 54.0168L119.519 41.5168M149.5 66.0724C152.5 68.5724 152.065 71.0168 154 71.0168C156.481 71.0168 158.038 69.0168 157.519 64.5168C157 60.0168 155.038 57.0168 148.519 53.0168C142 49.0168 138.519 47.5168 132.019 45.0168C125.519 42.5168 119.519 41.5168 119.519 41.5168M149.5 66.0724C149.5 66.0724 145.217 66.0539 141 66.0168C136.448 65.9768 133.507 68.1399 130 70.5724C129 71.266 126.5 72.8232 126.5 72.8232M119.519 41.5168C110.5 45.0168 99.5 30.0724 99 28.5724M119.519 41.5168C119.519 41.5168 126.5 36.0724 124 24.5724C122.832 19.1989 119.917 16.1179 117.143 14.3602C114.343 12.5862 111.449 15.3844 110.862 18.6466C110.611 20.0455 110.188 21.5589 109.5 23.0724C107 28.5724 99 28.5724 99 28.5724M35.0192 71.5168C34.4245 76.245 34.7855 79.1888 35.483 84.878M35.0192 71.5168C35.1247 70.6781 35.2824 69.6041 35.4484 68.473C35.6446 67.136 35.8526 65.7192 36 64.5168C36.4002 61.2523 37.2263 56.9886 38.1321 53.0168M35.0192 71.5168C35.0192 71.5168 31.4446 72.2926 27.5 72.9799C26.4623 73.1607 21.7722 74 19 74C14.7732 74 14.0592 74.0405 10 72.2618C8.89558 71.7779 7.88284 71.1955 7 70.5168C5.92535 69.6906 5.10734 69.0509 4.5 68.4165M38.1321 53.0168C38.1321 53.0168 31.5 57.5168 27 58.5168C22.5 59.5169 18 61.0168 14 62.5168C10 64.0168 8.79577 65.3315 4.5 68.4165M54.5 29.0724L62 26.0724M62 26.0724C62 26.0724 54.5 25.4136 54.5 19.4136C54.5 13.4135 70 11.4135 71.5 14.4135C73 17.4135 69 8.91353 73 4.41353C77 -0.0864769 83.4838 7.13515 86.5 12.4135C88.5 15.9135 86.5 22.0724 86.5 22.0724C86.5 22.0724 94 23.5724 96.5 26.0724C99 28.5723 98.5 27.0723 99 28.5724M62 26.0724C62 26.0724 68 25.0723 67.5 26.0724C67 27.0724 59.5 32.2312 64 38.0723C68.5 43.9135 77 33.4135 73 30.4135" stroke="black" stroke-width="5"/>
<ellipse cx="98.5" cy="59.0166" rx="5.5" ry="7.5" fill="black"/>
<ellipse cx="98.5" cy="59.0166" rx="5.5" ry="7.5" fill="black"/>
<ellipse cx="98.5" cy="59.0166" rx="5.5" ry="7.5" fill="black"/>
<ellipse cx="55.5" cy="59.0166" rx="5.5" ry="7.5" fill="black"/>
<ellipse cx="55.5" cy="59.0166" rx="5.5" ry="7.5" fill="black"/>
<ellipse cx="55.5" cy="59.0166" rx="5.5" ry="7.5" fill="black"/>
<ellipse cx="80.5174" cy="86.5361" rx="4.48276" ry="6.46381" fill="black"/>
<ellipse cx="63.4828" cy="86.5361" rx="4.48276" ry="6.46381" fill="black"/>
<path d="M139.5 67.0723C139.5 67.0723 138.5 69.5723 138 71.0723C137.5 72.5723 137 76.0723 141 76.0723C145 76.0723 144 72.5723 143.5 71.0723C143 69.5723 142 67.0723 142 67.0723C142 67.0723 145.5 67.0723 147 68.0723C148.5 69.0723 150.5 71.5723 150.5 76.0723C150.5 80.5723 147 83.0723 145.5 84.0723C144 85.0723 141 85.0723 141 85.0723C141 85.0723 138 85.0723 136 84.0723C134 83.0723 131 80.0723 131 76.0723C131 72.0723 133 69.0723 134.5 68.0723C136 67.0723 139.5 67.0723 139.5 67.0723Z" fill="white" stroke="black" stroke-width="3"/>
<path d="M105.999 52.0039L95.0001 46.0006" stroke="black" stroke-width="5" stroke-linecap="round"/>
<path d="M47 52.0039L57.9985 46.0006" stroke="black" stroke-width="5" stroke-linecap="round"/>
</svg>
