<svg width="166" height="160" viewBox="0 0 166 160" fill="none" xmlns="http://www.w3.org/2000/svg">
<path d="M148.5 120.625C148.5 120.625 145.5 119.125 144.5 117.125C143.5 115.125 142.5 113.625 143 110.125C143.5 106.625 144.5 104.625 148 101.125C151.5 97.625 153.5 97.625 156.5 96.625C159.5 95.625 162 96.125 162 96.125C162 96.125 161 98.625 160.5 101.125C160 103.625 160 106.125 160 107.625C160 109.125 164.5 106.625 164.5 106.625C164.5 106.625 164.5 112.625 161 115.625C157.5 118.625 152.5 120.125 152.5 120.125L148.5 120.625Z" fill="black"/>
<path d="M148.5 120.625C148.5 120.625 145.5 119.125 144.5 117.125C143.5 115.125 142.5 113.625 143 110.125C143.5 106.625 144.5 104.625 148 101.125C151.5 97.625 153.5 97.625 156.5 96.625C159.5 95.625 162 96.125 162 96.125C162 96.125 161 98.625 160.5 101.125C160 103.625 160 106.125 160 107.625C160 109.125 164.5 106.625 164.5 106.625C164.5 106.625 164.5 112.625 161 115.625C157.5 118.625 152.5 120.125 152.5 120.125L148.5 120.625ZM148.5 120.625C148.5 120.625 149 117.625 150.5 115.125C152 112.625 155 111.625 155 111.625" stroke="black" stroke-width="3"/>
<path d="M137 136.625C137 136.625 143.5 135.125 145 133.625C145.704 132.921 147.315 130.625 148 127.625C148.685 124.625 148.5 120.625 148.5 120.625L152.5 120.125C152.5 120.125 154 123.125 154 128.125C154 133.125 154 135.125 152.5 138.625C151 142.125 146.5 145.125 144.5 145.625C142.5 146.125 138 146.125 138 146.125V141.125L137 136.625Z" fill="white" stroke="black" stroke-width="3"/>
<path d="M15.0815 142.944C14.0815 151.444 22.5814 155.944 24.5815 156.444C26.5815 156.944 30.0815 157.444 30.0815 157.444C30.0815 157.444 30.5814 149.444 30.0815 143.944C29.5815 138.444 26.5815 132.944 26.5815 132.944C26.5815 132.944 16.0815 134.444 15.0815 142.944Z" fill="black"/>
<path d="M128.081 140.444C127.581 137.944 125.581 135.944 122.581 135.944C118.231 135.944 113.778 138.783 111.581 142.444C110.081 144.944 109.581 148.444 110.081 151.444C110.581 154.444 113.581 157.444 113.581 157.444H121.581C121.581 157.444 127.581 151.444 128.081 149.444C128.581 147.444 128.581 142.944 128.081 140.444Z" fill="black"/>
<path d="M84.5815 111.944H68.5815C68.5815 111.944 65.5815 112.944 64.5815 116.944C63.5815 120.944 65.5815 125.944 65.5815 125.944C68.7612 129.442 70.3313 131.444 75.5815 131.444C81.6213 131.444 84.6242 128.03 88.0815 123.944C88.0815 123.944 89.0815 119.944 88.0815 116.944C87.0815 113.944 84.5815 111.944 84.5815 111.944Z" fill="#F5A161"/>
<path d="M47.5815 107.444C47.5815 107.444 45.5815 114.944 45.5814 119.944C45.5814 124.944 46.2911 130.944 46.2911 130.944C46.2911 130.944 46.0815 129.5 47.5815 134.5C49.0815 139.5 62.8371 142.904 62.8371 142.904C62.8371 142.904 63.8371 139.96 66.3371 135.96C68.8371 131.96 71 131.96 71 131.96C71 131.96 68.4185 130.5 67.5 129.5C66.5815 128.5 65.5815 125.944 65.5815 125.944C65.5815 125.944 63.5815 120.944 64.5815 116.944C65.5815 112.944 68.5815 111.944 68.5815 111.944C68.5815 111.944 61.0815 110.944 57.5815 110.444C54.0815 109.944 47.5815 107.444 47.5815 107.444Z" fill="white"/>
<path d="M82.9185 135.96C81.9185 133.904 80 132.5 80 132.5L74.9185 133.904C74.9185 133.904 75.5 142.46 78.5 143.46C81.5 144.46 85 141.904 85 141.904C85 141.904 83.9185 138.015 82.9185 135.96Z" fill="black"/>
<path d="M62.8371 142.904C62.8371 142.904 67.5 144.404 70.9185 142.904C74.3371 141.404 74.9185 133.904 74.9185 133.904L71 131.96C71 131.96 68.8371 131.96 66.3371 135.96C63.8371 139.96 62.8371 142.904 62.8371 142.904Z" fill="black"/>
<path d="M47.5815 134.5C46.0815 129.5 46.2911 130.944 46.2911 130.944L26.5815 132.944C26.5815 132.944 29.5815 138.444 30.0815 143.944C30.5814 149.444 30.0815 157.444 30.0815 157.444H52.5815H69.5815H81.5815H96.0815H113.581C113.581 157.444 110.581 154.444 110.081 151.444C109.581 148.444 110.081 144.944 111.581 142.444C113.778 138.783 118.231 135.944 122.581 135.944C125.581 135.944 127.581 137.944 128.081 140.444C128.581 142.944 128.581 147.444 128.081 149.444C127.581 151.444 121.581 157.444 121.581 157.444H129.081C129.081 157.444 136.081 150.944 136.581 147.944C137.081 144.944 137.081 139.944 136.081 137.944C135.081 135.944 132.581 134.444 131.581 131.944C130.581 129.444 127.081 114.944 126.081 111.944C125.081 108.944 119.081 97.9443 119.081 97.9443C119.081 97.9443 115.581 100.944 109.581 104.444C103.581 107.944 94.0815 109.944 94.0815 109.944L84.5815 111.944C84.5815 111.944 87.0815 113.944 88.0815 116.944C89.0815 119.944 88.0815 123.944 88.0815 123.944C88.0815 123.944 86.0815 127.389 85.0815 128.944C84.0815 130.5 80 132.5 80 132.5C80 132.5 81.9185 133.904 82.9185 135.96C83.9185 138.015 85 141.904 85 141.904C85 141.904 81.5 144.46 78.5 143.46C75.5 142.46 74.9185 133.904 74.9185 133.904L80 132.5C80 132.5 84.0815 130.5 85.0815 128.944C86.0815 127.389 88.0815 123.944 88.0815 123.944C84.6242 128.03 81.6213 131.444 75.5815 131.444C70.3313 131.444 68.7612 129.442 65.5815 125.944C65.5815 125.944 66.5815 128.5 67.5 129.5C68.4185 130.5 71 131.96 71 131.96L74.9185 133.904C74.9185 133.904 74.3371 141.404 70.9185 142.904C67.5 144.404 62.8371 142.904 62.8371 142.904C62.8371 142.904 49.0815 139.5 47.5815 134.5Z" fill="white"/>
<path d="M26.5815 132.944C26.5815 132.944 16.0815 134.444 15.0815 142.944C14.0815 151.444 22.5814 155.944 24.5815 156.444C26.5815 156.944 30.0815 157.444 30.0815 157.444M26.5815 132.944L46.2911 130.944M26.5815 132.944C26.5815 132.944 29.5815 138.444 30.0815 143.944C30.5814 149.444 30.0815 157.444 30.0815 157.444M46.2911 130.944C46.2911 130.944 45.5814 124.944 45.5814 119.944C45.5815 114.944 47.5815 107.444 47.5815 107.444C47.5815 107.444 54.0815 109.944 57.5815 110.444C61.0815 110.944 68.5815 111.944 68.5815 111.944M46.2911 130.944C46.2911 130.944 46.0815 129.5 47.5815 134.5C49.0815 139.5 62.8371 142.904 62.8371 142.904M30.0815 157.444H52.5815H69.5815H81.5815H96.0815H113.581M84.5815 111.944L94.0815 109.944C94.0815 109.944 103.581 107.944 109.581 104.444C115.581 100.944 119.081 97.9443 119.081 97.9443C119.081 97.9443 125.081 108.944 126.081 111.944C127.081 114.944 130.581 129.444 131.581 131.944C132.581 134.444 135.081 135.944 136.081 137.944C137.081 139.944 137.081 144.944 136.581 147.944C136.081 150.944 129.081 157.444 129.081 157.444H121.581M84.5815 111.944H68.5815M84.5815 111.944C84.5815 111.944 87.0815 113.944 88.0815 116.944C89.0815 119.944 88.0815 123.944 88.0815 123.944M68.5815 111.944C68.5815 111.944 65.5815 112.944 64.5815 116.944C63.5815 120.944 65.5815 125.944 65.5815 125.944M65.5815 125.944C65.5815 125.944 66.5815 128.5 67.5 129.5C68.4185 130.5 71 131.96 71 131.96M65.5815 125.944C68.7612 129.442 70.3313 131.444 75.5815 131.444C81.6213 131.444 84.6242 128.03 88.0815 123.944M88.0815 123.944C88.0815 123.944 86.0815 127.389 85.0815 128.944C84.0815 130.5 80 132.5 80 132.5M80 132.5C80 132.5 81.9185 133.904 82.9185 135.96C83.9185 138.015 85 141.904 85 141.904M80 132.5L74.9185 133.904M85 141.904C85 141.904 81.5 144.46 78.5 143.46C75.5 142.46 74.9185 133.904 74.9185 133.904M85 141.904C85 141.904 102.163 138.444 103.663 133.444C105.163 128.444 106.5 127.5 106.5 127.5M121.581 157.444C121.581 157.444 127.581 151.444 128.081 149.444C128.581 147.444 128.581 142.944 128.081 140.444C127.581 137.944 125.581 135.944 122.581 135.944C118.231 135.944 113.778 138.783 111.581 142.444C110.081 144.944 109.581 148.444 110.081 151.444C110.581 154.444 113.581 157.444 113.581 157.444M121.581 157.444H113.581M62.8371 142.904C62.8371 142.904 67.5 144.404 70.9185 142.904C74.3371 141.404 74.9185 133.904 74.9185 133.904M62.8371 142.904C62.8371 142.904 63.8371 139.96 66.3371 135.96C68.8371 131.96 71 131.96 71 131.96M71 131.96L74.9185 133.904" stroke="black" stroke-width="5"/>
<path d="M119.5 103.945C119.5 103.945 114.392 106.944 114.258 111.942C114.123 116.94 115.569 118.98 118.027 120.546C120.486 122.113 126 120.945 126 120.945L125 116.945L123.5 111.942L119.5 103.945Z" fill="#F5A161"/>
<path d="M49.5 104.017C54 106.517 54.5 107.017 64.5 109.017C74.5 111.017 81.5192 109.517 84.5 109.017C84.5 109.017 90.5 107.017 93.5 105.017C96.5 103.017 106 95.5169 104.5 87.5169C103 79.5169 100 77.5169 94 74.0169C88 70.5169 81 69.0169 74 69.0169C67 69.0169 59.5 70.0169 54.5 72.5169C49.5 75.0169 43 80.5169 42.5 87.5169C42 94.5169 49.5 104.017 49.5 104.017Z" fill="#F5A161"/>
<path d="M7 70.5168C7.88284 71.1955 8.89558 71.7779 10 72.2618C10.8312 72.6261 16.5128 74 19 74C22.3474 74 25.7906 73.2777 27.5 72.9799C31.4446 72.2926 35.0192 71.5168 35.0192 71.5168C35.1247 70.6781 35.2824 69.6041 35.4484 68.473C35.6446 67.136 35.8526 65.7192 36 64.5168C36.4002 61.2523 37.2263 56.9886 38.1321 53.0168C38.1321 53.0168 31.5 57.5168 27 58.5168C22.5 59.5169 18 61.0168 14 62.5168C10 64.0168 8.79577 65.3315 4.5 68.4165C5.10734 69.0509 5.92535 69.6906 7 70.5168Z" fill="#F5A161"/>
<path d="M123 54.0168C123 54.0168 124.5 60.5168 125.519 66.0168C125.968 68.4366 126.304 70.6628 126.5 72.8232C126.5 72.8232 129 71.266 130 70.5724C133.507 68.1399 136.448 65.9768 141 66.0168C145.217 66.0539 149.5 66.0724 149.5 66.0724C146.5 63.5724 123 54.0168 123 54.0168Z" fill="#F5A161"/>
<path d="M35.5 85.0169C36.4807 93.0169 45 101.517 49.5 104.017C49.5 104.017 42 94.5169 42.5 87.5169C43 80.5169 49.5 75.0169 54.5 72.5169C59.5 70.0169 67 69.0169 74 69.0169C81 69.0169 88 70.5169 94 74.0169C100 77.5169 103 79.5169 104.5 87.5169C106 95.5169 96.5 103.017 93.5 105.017C90.5 107.017 84.5 109.017 84.5 109.017C84.9251 108.946 85.5238 108.854 86.2554 108.742C90.654 108.069 99.8556 106.66 105 104.517C106.174 104.028 107.177 103.653 108.082 103.315C111.805 101.925 113.889 101.147 119.519 95.5169C125.831 89.2055 126.045 86.5523 126.379 82.4266C126.415 81.9764 126.453 81.5087 126.5 81.0168C126.769 78.2166 126.749 75.5732 126.5 72.8232C126.304 70.6628 125.968 68.4366 125.519 66.0168C124.5 60.5168 123 54.0168 123 54.0168L119.519 41.5168C110.5 45.0168 99.5 30.0724 99 28.5724C98.5 27.0723 99 28.5723 96.5 26.0724C94 23.5724 86.5 22.0724 86.5 22.0724C86.5 22.0724 88.5 15.9135 86.5 12.4135C83.4838 7.13515 77 -0.0864769 73 4.41353C69 8.91353 73 17.4135 71.5 14.4135C70 11.4135 54.5 13.4135 54.5 19.4136C54.5 25.4136 62 26.0724 62 26.0724L54.5 29.0724L41.5192 41.5168C40.9273 42.1087 39.4459 47.2556 38.1321 53.0168C37.2263 56.9886 36.4002 61.2523 36 64.5168C35.8526 65.7192 35.6446 67.136 35.4484 68.473C35.2824 69.6041 35.1247 70.6781 35.0192 71.5168C34.4245 76.245 34.7855 79.1888 35.483 84.878L35.5 85.0169Z" fill="white"/>
<path d="M99 28.5724C99.5 30.0724 110.5 45.0168 119.519 41.5168C119.519 41.5168 126.5 36.0724 124 24.5724C122.832 19.1989 119.917 16.1179 117.143 14.3602C114.343 12.5862 111.449 15.3844 110.862 18.6466C110.611 20.0455 110.188 21.5589 109.5 23.0724C107 28.5724 99 28.5724 99 28.5724Z" fill="#F5A161"/>
<path d="M41.5192 41.5168L54.5 29.0724C54.5 29.0724 49.5 26.5724 47.5 22.0724C47.0598 21.082 46.7408 20.0916 46.5108 19.1492C45.7609 16.0762 42.9698 13.4182 40.2315 15.0017C37.4862 16.5891 34.7439 19.4505 34.5 24.5724C34 35.0724 41.5192 41.5168 41.5192 41.5168Z" fill="#F5A161"/>
<path d="M123 54.0168C123 54.0168 146.5 63.5724 149.5 66.0724C152.5 68.5724 152.065 71.0168 154 71.0168C156.481 71.0168 158.038 69.0168 157.519 64.5168C157 60.0168 155.038 57.0168 148.519 53.0168C142 49.0168 138.519 47.5168 132.019 45.0168C125.519 42.5168 119.519 41.5168 119.519 41.5168L123 54.0168Z" fill="black"/>
<path d="M41.5192 41.5168C41.5192 41.5168 31.5 43.0168 23.5 46.0168C15.5 49.0168 8 55.5168 6 57.5168C4 59.5168 3 61.0168 3 64.0168C3 66.1605 3.41189 67.28 4.5 68.4165C8.79577 65.3315 10 64.0168 14 62.5168C18 61.0168 22.5 59.5169 27 58.5168C31.5 57.5168 38.1321 53.0168 38.1321 53.0168C39.4459 47.2556 40.9273 42.1087 41.5192 41.5168Z" fill="black"/>
<path d="M41.5192 41.5168C41.5192 41.5168 31.5 43.0168 23.5 46.0168C15.5 49.0168 8 55.5168 6 57.5168C4 59.5168 3 61.0168 3 64.0168C3 66.1605 3.41189 67.28 4.5 68.4165M41.5192 41.5168C40.9273 42.1087 39.4459 47.2556 38.1321 53.0168M41.5192 41.5168L54.5 29.0724M41.5192 41.5168C41.5192 41.5168 34 35.0724 34.5 24.5724C34.7439 19.4505 37.4862 16.5891 40.2315 15.0017C42.9698 13.4182 45.7609 16.0762 46.5108 19.1492C46.7408 20.0916 47.0598 21.082 47.5 22.0724C49.5 26.5724 54.5 29.0724 54.5 29.0724M35.5 85.0169C36.4807 93.0169 45 101.517 49.5 104.017M35.5 85.0169L35.483 84.878M35.5 85.0169C35.4943 84.9704 35.4886 84.9241 35.483 84.878M49.5 104.017C54 106.517 54.5 107.017 64.5 109.017C74.5 111.017 81.5192 109.517 84.5 109.017M49.5 104.017C49.5 104.017 42 94.5169 42.5 87.5169C43 80.5169 49.5 75.0169 54.5 72.5169C59.5 70.0169 67 69.0169 74 69.0169C81 69.0169 88 70.5169 94 74.0169C100 77.5169 103 79.5169 104.5 87.5169C106 95.5169 96.5 103.017 93.5 105.017C90.5 107.017 84.5 109.017 84.5 109.017M84.5 109.017C84.9251 108.946 85.5238 108.854 86.2554 108.742C90.654 108.069 99.8556 106.66 105 104.517C106.174 104.028 107.177 103.653 108.082 103.315C111.805 101.925 113.889 101.147 119.519 95.5169C125.831 89.2055 126.045 86.5523 126.379 82.4266C126.415 81.9764 126.453 81.5087 126.5 81.0168C126.769 78.2166 126.749 75.5732 126.5 72.8232M123 54.0168C123 54.0168 124.5 60.5168 125.519 66.0168C125.968 68.4366 126.304 70.6628 126.5 72.8232M123 54.0168C123 54.0168 146.5 63.5724 149.5 66.0724M123 54.0168L119.519 41.5168M149.5 66.0724C152.5 68.5724 152.065 71.0168 154 71.0168C156.481 71.0168 158.038 69.0168 157.519 64.5168C157 60.0168 155.038 57.0168 148.519 53.0168C142 49.0168 138.519 47.5168 132.019 45.0168C125.519 42.5168 119.519 41.5168 119.519 41.5168M149.5 66.0724C149.5 66.0724 145.217 66.0539 141 66.0168C136.448 65.9768 133.507 68.1399 130 70.5724C129 71.266 126.5 72.8232 126.5 72.8232M119.519 41.5168C110.5 45.0168 99.5 30.0724 99 28.5724M119.519 41.5168C119.519 41.5168 126.5 36.0724 124 24.5724C122.832 19.1989 119.917 16.1179 117.143 14.3602C114.343 12.5862 111.449 15.3844 110.862 18.6466C110.611 20.0455 110.188 21.5589 109.5 23.0724C107 28.5724 99 28.5724 99 28.5724M35.0192 71.5168C34.4245 76.245 34.7855 79.1888 35.483 84.878M35.0192 71.5168C35.1247 70.6781 35.2824 69.6041 35.4484 68.473C35.6446 67.136 35.8526 65.7192 36 64.5168C36.4002 61.2523 37.2263 56.9886 38.1321 53.0168M35.0192 71.5168C35.0192 71.5168 31.4446 72.2926 27.5 72.9799C25.7906 73.2777 22.3474 74 19 74C16.5128 74 10.8312 72.6261 10 72.2618C8.89558 71.7779 7.88284 71.1955 7 70.5168C5.92535 69.6906 5.10734 69.0509 4.5 68.4165M38.1321 53.0168C38.1321 53.0168 31.5 57.5168 27 58.5168C22.5 59.5169 18 61.0168 14 62.5168C10 64.0168 8.79577 65.3315 4.5 68.4165M54.5 29.0724L62 26.0724M62 26.0724C62 26.0724 54.5 25.4136 54.5 19.4136C54.5 13.4135 70 11.4135 71.5 14.4135C73 17.4135 69 8.91353 73 4.41353C77 -0.0864769 83.4838 7.13515 86.5 12.4135C88.5 15.9135 86.5 22.0724 86.5 22.0724C86.5 22.0724 94 23.5724 96.5 26.0724C99 28.5723 98.5 27.0723 99 28.5724M62 26.0724C62 26.0724 68 25.0723 67.5 26.0724C67 27.0724 59.5 32.2312 64 38.0723C68.5 43.9135 77 33.4135 73 30.4135" stroke="black" stroke-width="5"/>
<ellipse cx="98.5" cy="59.0166" rx="5.5" ry="7.5" fill="black"/>
<ellipse cx="98.5" cy="59.0166" rx="5.5" ry="7.5" fill="black"/>
<ellipse cx="98.5" cy="59.0166" rx="5.5" ry="7.5" fill="black"/>
<ellipse cx="55.5" cy="59.0166" rx="5.5" ry="7.5" fill="black"/>
<ellipse cx="55.5" cy="59.0166" rx="5.5" ry="7.5" fill="black"/>
<ellipse cx="55.5" cy="59.0166" rx="5.5" ry="7.5" fill="black"/>
<ellipse cx="80.5174" cy="86.5361" rx="4.48276" ry="6.46381" fill="black"/>
<ellipse cx="63.4828" cy="86.5361" rx="4.48276" ry="6.46381" fill="black"/>
<path d="M139.5 67.0723C139.5 67.0723 138.5 69.5723 138 71.0723C137.5 72.5723 137 76.0723 141 76.0723C145 76.0723 144 72.5723 143.5 71.0723C143 69.5723 142 67.0723 142 67.0723C142 67.0723 145.5 67.0723 147 68.0723C148.5 69.0723 150.5 71.5723 150.5 76.0723C150.5 80.5723 147 83.0723 145.5 84.0723C144 85.0723 141 85.0723 141 85.0723C141 85.0723 138 85.0723 136 84.0723C134 83.0723 131 80.0723 131 76.0723C131 72.0723 133 69.0723 134.5 68.0723C136 67.0723 139.5 67.0723 139.5 67.0723Z" fill="white" stroke="black" stroke-width="3"/>
<path d="M50 48H62" stroke="black" stroke-width="5" stroke-linecap="round"/>
<path d="M93 48H105" stroke="black" stroke-width="5" stroke-linecap="round"/>
</svg>
