<?xml version="1.0" encoding="UTF-8"?>
<svg id="Capa_1" data-name="Capa 1" xmlns="http://www.w3.org/2000/svg" viewBox="0 0 566.93 566.93">
  <defs>
    <style>
      .cls-1 {
        fill: #000;
      }

      .cls-1, .cls-2, .cls-3 {
        stroke-width: 0px;
      }

      .cls-2 {
        fill: #fff;
      }

      .cls-3 {
        fill: #f5a162;
      }
    </style>
  </defs>
  <g>
    <path class="cls-1" d="M504.72,298.42c-2.57-11.76-9.27-20.62-19.02-27.6-24.18-17.3-51.23-28.36-79.76-36.73,9.85-19.9,10.37-39.78.23-58.95-5.7-10.78-13.43-21.67-27.88-20.04-13.12,1.48-15.48,12.83-17.97,23.55-2.27,9.76-9.71,17.38-18.71,15.5-11.05-2.3-19.87-11.87-31.18-15.43-.71-.22-.84-3.42-.67-5.17,1.92-19.47-9.5-32.06-23.04-42.88-15.39-12.3-32.06-5.64-34.79,13.8-.92,6.59-2.84,8.32-9.41,8.36-12.02.07-23.27,3.36-32.53,11.82-7.62,6.96-4.4,15.87-3.81,26.09-6.75-5.91-8.45-11.91-10.46-18.21-5.33-16.76-20.67-20.71-33.78-9.14-7.87,6.94-11.83,15.66-12.64,26.22-1.23,16.09,3.92,30.4,12.04,44.06-43.84,10.72-67.82,22.72-89.64,44.63-12.02,12.07-14.03,29.29-4.22,39.76,6.93,7.4,15.32,12.39,25.49,14.66,18.76,4.18,37.31,1.78,55.87-1.33,3.37,36.55,14.18,64.22,35.91,83.31,21.73,19.08,35.79,22.35,50.35,25.71,14.55,3.35,57.1,2.7,79.84-2.97,22.74-5.68,58.93-19.57,78.66-37.21,18.11-16.19,24.33-37.96,24.33-50.4,0-1.35-.25-3.22.98-4.4.8-.77,2.27-.72,2.75.28,8.42,17.72,26.8,22.49,41.95,16.32,13.39-5.45,21.17-19.33,18.62-33.24,18.42-1.39,26.48-12.2,22.51-30.38ZM359.15,203.03c8.77-5.33,13.24-13.46,15.23-23.36.78-3.86,1.2-9.28,5.31-10.35,4.79-1.25,7.6,3.78,10.4,7.03,7.15,8.28,9.23,18.28,8.87,28.95,0,.73,0,1.47,0,2.21-.2,9.6-2.18,19.92-10.57,24.26-9.15,4.73-17.67-2.42-25.06-8.3-1.96-1.56-3.88-3.17-5.76-4.82-9.9-8.7-9.85-8.65,1.6-15.62ZM165.52,178.57c2.01-4.02,5.69-6.33,9.41-7.15,7.07-1.54,7.33,6.1,8.93,11,2.34,7.18,6.22,13.42,11.85,18.39,3.56,3.14,3.91,5.48.06,8.74-4.22,3.57-7.91,7.77-11.86,11.67q-8.86,8.78-14.8-2.82c-3.79-7.34-5.85-15.1-6.52-25.13-.6-3.65.58-9.99,2.93-14.69ZM151.59,312.44c-.2,5.41-4.94,4.42-8.35,5.12-19.36,3.95-38.58,5.4-58.76-2.82,8.19-8.97,18.05-11.39,27.3-14.64,11.78-4.13,23.84-7.46,35.78-11.11,2.07-.63,5.12-1.86,5.9.6,2.43,7.72-1.58,15.18-1.86,22.86ZM265.66,421.81c-15.35.86-31.51-3.38-47.53-7.64-16.22-4.32-32.99-26.27-32.7-44.27.32-19.77,13.72-32.58,30.31-38.71,38.9-14.37,77.52-14,112.97,11.01,16.79,11.85,19.78,32.26,7.25,48.53-17.32,22.48-40.85,31.79-70.31,31.09ZM404.54,351.36c-2.34,25.13-20.99,37.92-39.82,49.79-7.25,4.57-16.26,6.35-26.88,10.29,4.15-5.32,6.75-8.57,9.26-11.88,17.92-23.58,13.44-52.86-11.03-69.59-39.31-26.87-81.85-28.09-124.88-12.27-21.54,7.92-36.47,24.51-41.91,48.7-5.19-11.58-6.12-23.69-5.26-35.54,1.99-27.3,7.01-54.17,14.59-80.51,1.11-3.85,2.54-7.5,5.74-10.47,9.5-8.8,18.67-17.96,28.04-26.91,4.39-4.19,9.7-6.49,16.77-7.15-2.2,9.7-3.5,19,2.96,27.33,6.67,8.61,16.59,10.26,26.58,4.09,11.06-6.83,17.45-21.75,12.87-30.13-2.5-4.59-5.35-4.68-8.02-.25-2.25,3.73-3.94,7.81-6.28,11.49-2.93,4.6-6.24,10.9-12.71,6.75-5.64-3.62-4.04-9.73-.5-14.71,1.92-2.7,4.14-5.25,6.52-7.55,3.19-3.08,5.25-6.54,3.29-10.84-2.21-4.85-7.08-5.25-11.42-4.69-6.31.8-12.45,1.92-18.28-1.68-7.38-4.56-7.76-10.54.1-13.78,9.81-4.04,20.06-10.43,30.93-1.69,2.35,1.89,5.42,2.36,8.32.47,3.28-2.13,4.08-5.23,2.99-8.7-1.59-5.08-1.99-10.32-1.06-15.38,1.38-7.51,5.25-9.98,12.44-5.12,14.72,9.97,20.67,23.72,15.74,40.94-1.82,6.36-.6,8.21,5.45,9.09,15.79,2.29,27.36,10.33,36.77,23.67,11.65,16.51,26.38,30.15,48.16,32.2,2.93.28,3.9,1.99,4.45,4.05,8.76,32.78,19.28,65.33,16.05,99.99ZM450.41,315.78c.48-1.07,2.01-.99,2.38.12,1.98,5.82,5.08,9.3,2,13.74-1.16,1.67-4.61,1.65-5.92-.18-3.03-4.24-.97-8.04,1.54-13.68ZM417.53,312.88c-1.76-9.13-3.34-17.28-5.31-27.48,10.92,4.68,20.58,8.82,30.24,12.96-9.26,3.99-16.39,10-24.94,14.53ZM460.89,353.96c-9.21,4.35-22.49.8-28.06-6.87-5.71-7.87-5.52-20.69.57-27.93,1.24-1.48,3.23-3.02,4.99-2.62,2.2.5,1.16,3.01.8,4.89-1.27,6.57-.77,12.6,6.19,16.08,5.1,2.55,10.22,2.27,14.71-.97,6.35-4.56,4.81-10.84,2.94-17.07-.25-.85-.94-1.83-.56-2.97.32-.96,1.44-1.39,2.37-.98,5.92,2.62,9.17,10.82,9.38,18.6.27,9.64-5.17,15.98-13.34,19.84Z"/>
    <g>
      <path class="cls-1" d="M163.46,248.46c-2.78,19.49-8.88,25.29-31.32,31.02-19.26,4.92-38.51,9.97-55.22,21.69-2.42-5.39.79-8.79,3.88-11.86,22.92-22.81,50.53-36.08,82.66-40.85Z"/>
      <path class="cls-1" d="M405.69,251.57c2.78,19.49,8.88,25.29,31.32,31.02,19.26,4.92,38.51,9.97,55.22,21.69,2.42-5.39-.79-8.79-3.88-11.86-22.92-22.81-50.53-36.08-82.66-40.85Z"/>
    </g>
    <g>
      <g>
        <path class="cls-3" d="M265.66,421.81c-15.35.86-31.51-3.38-47.53-7.64-16.22-4.32-32.99-26.27-32.7-44.27.32-19.77,13.72-32.58,30.31-38.71,38.9-14.36,77.52-14,112.97,11.01,16.79,11.85,19.78,32.26,7.25,48.53-17.32,22.48-40.85,31.79-70.31,31.09ZM296.33,361.94c-.71-6.15-1.39-14.7-12.16-15.72-7.25-.69-12.48,7.03-12.55,17.47-.07,10.26,5.1,17.83,12.29,18.01,7.32.18,12.38-7.02,12.41-19.76ZM249.49,364.79c.51-9.13-5.21-18.04-11.98-18.65-7.01-.63-13.47,7.22-13.83,16.83-.35,9.07,5.48,18.11,12.05,18.71,6.99.63,13.21-7.01,13.76-16.9Z"/>
        <path class="cls-3" d="M398.95,205.29c0,.74,0,1.48,0,2.22-.2,9.6-2.18,19.92-10.58,24.26-9.06,4.69-17.51-2.28-24.85-8.13-2.02-1.61-4.02-3.27-5.96-4.98-9.91-8.71-9.86-8.66,1.6-15.63,8.77-5.33,13.24-13.46,15.23-23.36.78-3.86,1.2-9.28,5.31-10.35,4.79-1.26,7.59,3.78,10.4,7.03,7.15,8.29,9.23,18.28,8.86,28.95Z"/>
        <path class="cls-3" d="M84.48,314.74c8.18-8.97,18.05-11.39,27.3-14.64,11.78-4.13,23.84-7.46,35.78-11.11,2.07-.63,5.12-1.86,5.9.6,2.43,7.72-1.58,15.18-1.86,22.86-.2,5.4-4.94,4.42-8.35,5.12-19.36,3.95-38.58,5.4-58.76-2.82Z"/>
        <path class="cls-3" d="M442.47,298.35c-9.25,3.99-16.39,10-24.94,14.53-1.76-9.13-3.34-17.28-5.31-27.48,10.92,4.68,20.58,8.82,30.24,12.96Z"/>
      </g>
      <path class="cls-3" d="M165.52,178.57c2.01-4.02,5.69-6.33,9.41-7.15,7.07-1.54,7.33,6.1,8.93,11,2.34,7.18,6.22,13.42,11.85,18.39,3.56,3.14,3.91,5.48.06,8.74-4.22,3.57-7.91,7.77-11.86,11.67q-8.86,8.78-14.8-2.82c-3.79-7.34-5.85-15.1-6.52-25.13-.6-3.65.58-9.99,2.93-14.69Z"/>
    </g>
    <g>
      <path class="cls-2" d="M450.43,315.73c.47-1.05,1.97-.97,2.34.12,1.98,5.85,5.11,9.34,2.02,13.79-1.16,1.67-4.61,1.66-5.92-.18-3.04-4.25-.96-8.07,1.56-13.73Z"/>
      <path class="cls-2" d="M169.28,366.41c-5.19-11.58-6.12-23.69-5.26-35.54,1.99-27.3,7.01-54.17,14.59-80.51,1.11-3.85,2.53-7.5,5.74-10.47,9.5-8.8,18.67-17.96,28.04-26.91,4.39-4.19,9.7-6.49,16.77-7.15-2.2,9.7-3.5,19,2.96,27.33,6.67,8.61,16.59,10.26,26.58,4.09,11.06-6.83,17.45-21.74,12.87-30.13-2.5-4.59-5.35-4.68-8.02-.25-2.25,3.73-3.94,7.81-6.28,11.49-2.93,4.6-6.24,10.9-12.71,6.75-5.64-3.62-4.04-9.73-.5-14.71,1.92-2.7,4.14-5.25,6.52-7.55,3.19-3.08,5.26-6.54,3.29-10.84-2.21-4.85-7.08-5.25-11.42-4.7-6.31.8-12.45,1.92-18.28-1.68-7.38-4.56-7.76-10.54.1-13.78,9.81-4.04,20.06-10.43,30.93-1.69,2.35,1.89,5.42,2.36,8.32.47,3.28-2.13,4.08-5.23,2.99-8.7-1.59-5.08-1.99-10.32-1.06-15.38,1.38-7.51,5.25-9.98,12.44-5.12,14.72,9.97,20.67,23.72,15.74,40.94-1.82,6.36-.6,8.21,5.45,9.09,15.79,2.29,27.36,10.33,36.77,23.67,11.65,16.51,26.38,30.15,48.16,32.2,2.93.28,3.9,1.99,4.45,4.05,8.76,32.78,19.28,65.33,16.05,99.99-2.34,25.13-20.99,37.92-39.82,49.79-7.25,4.57-16.26,6.35-26.88,10.29,4.15-5.32,6.75-8.57,9.27-11.88,17.92-23.58,13.44-52.86-11.03-69.59-39.31-26.87-81.85-28.09-124.88-12.27-21.54,7.92-36.47,24.51-41.91,48.7ZM229.6,288.01c.15-11.76-6.11-21.11-14.51-21.68-7.9-.53-15.81,9.48-16.2,20.48-.38,10.85,6.66,21,14.9,21.47,8.47.48,15.67-8.74,15.81-20.28ZM338.88,284.82c3.23-1.69,5.18-2.7,7.12-3.72,3.44-1.81,8.43-3.04,5.81-8.43-2.26-4.65-6.54-2.33-9.62-.89-10.16,4.77-18.52,11.85-25.15,20.97-2.01,2.76-2.55,5.5.03,7.87,1.69,1.56,4.48,1.9,6.04.05,9.43-11.22,18.41-4.03,27.22.68,3.33,1.78,5.98,3.12,8.4-.66,2.07-3.24.03-5.52-2.31-7.53-4.85-4.17-11.2-5.25-17.53-8.35Z"/>
    </g>
    <path class="cls-1" d="M229.6,288.01c-.15,11.54-7.34,20.76-15.81,20.28-8.23-.47-15.28-10.62-14.9-21.47.38-11,8.3-21.01,16.2-20.48,8.4.57,14.66,9.92,14.51,21.68Z"/>
    <path class="cls-1" d="M338.88,284.82c6.33,3.1,12.69,4.18,17.53,8.35,2.34,2.01,4.39,4.29,2.31,7.53-2.42,3.78-5.07,2.44-8.4.66-8.81-4.72-17.79-11.91-27.22-.68-1.56,1.86-4.35,1.51-6.04-.05-2.58-2.38-2.04-5.11-.03-7.87,6.63-9.12,14.99-16.2,25.15-20.97,3.08-1.45,7.36-3.77,9.62.89,2.62,5.38-2.37,6.62-5.81,8.43-1.94,1.02-3.88,2.03-7.12,3.72Z"/>
    <path class="cls-1" d="M296.33,361.94c-.03,12.74-5.09,19.94-12.41,19.76-7.19-.18-12.36-7.76-12.29-18.01.07-10.44,5.3-18.16,12.55-17.47,10.77,1.03,11.44,9.58,12.16,15.72Z"/>
    <path class="cls-1" d="M249.49,364.79c-.55,9.89-6.77,17.53-13.76,16.9-6.57-.6-12.4-9.64-12.05-18.71.37-9.61,6.82-17.46,13.83-16.83,6.77.61,12.48,9.51,11.98,18.65Z"/>
  </g>
  <path class="cls-2" d="M460.89,353.96c-9.21,4.35-22.49.8-28.06-6.87-5.71-7.87-5.52-20.69.57-27.93,1.24-1.48,3.23-3.02,4.99-2.62,2.2.5,1.16,3.01.8,4.89-1.27,6.57-.77,12.6,6.19,16.08,5.1,2.55,10.22,2.27,14.71-.97,6.35-4.56,4.81-10.84,2.94-17.07-.25-.85-.94-1.83-.56-2.97.32-.96,1.44-1.39,2.37-.98,5.92,2.62,9.17,10.82,9.38,18.6.27,9.64-5.17,15.98-13.34,19.84Z"/>
</svg>