<svg width="235" height="235" viewBox="0 0 235 235" fill="none" xmlns="http://www.w3.org/2000/svg">
<rect width="235" height="235" fill="white"/>
<path d="M163.422 167.264C163.422 167.264 166.622 168.515 168.845 167.942C171.068 167.369 172.905 167.126 175.263 164.442C177.621 161.758 178.481 159.691 178.796 154.766C179.11 149.84 177.748 148.346 176.476 145.445C175.203 142.543 173.115 141.005 173.115 141.005C173.115 141.005 171.869 143.403 170.282 145.426C168.695 147.45 166.768 149.1 165.611 150.09C164.455 151.081 163.317 146.068 163.317 146.068C163.317 146.068 158.692 150.029 158.763 154.624C158.834 159.219 161.083 163.945 161.083 163.945L163.422 167.264Z" fill="black"/>
<path d="M163.422 167.264C163.422 167.264 166.622 168.515 168.845 167.942C171.068 167.369 172.905 167.126 175.263 164.442C177.621 161.758 178.481 159.691 178.796 154.766C179.11 149.84 177.748 148.346 176.476 145.445C175.203 142.543 173.115 141.005 173.115 141.005C173.115 141.005 171.869 143.403 170.282 145.426C168.695 147.45 166.768 149.1 165.611 150.09C164.455 151.081 163.317 146.068 163.317 146.068C163.317 146.068 158.692 150.029 158.763 154.624C158.834 159.219 161.083 163.945 161.083 163.945L163.422 167.264ZM163.422 167.264C163.422 167.264 165.394 164.91 166.3 162.139C167.206 159.368 165.933 156.466 165.933 156.466" stroke="black" stroke-width="3"/>
<path d="M142.671 174.243C142.671 174.243 149.125 176.503 151.259 176.059C152.26 175.85 154.934 174.799 157.2 172.657C159.467 170.516 161.54 167.066 161.54 167.066L165.276 168.811C165.276 168.811 164.897 172.135 162.106 176.322C159.315 180.509 158.198 182.184 154.948 184.303C151.698 186.423 146.135 186.5 144.128 185.837C142.12 185.174 138.232 182.739 138.232 182.739L141.023 178.552L142.671 174.243Z" fill="white" stroke="black" stroke-width="3"/>
<path d="M16.3997 180.544C15.371 189.018 24.1151 193.504 26.1726 194.003C28.2301 194.501 31.8306 195 31.8306 195C31.8306 195 32.345 187.024 31.8306 181.541C31.3162 176.057 28.2301 170.574 28.2301 170.574C28.2301 170.574 17.4284 172.07 16.3997 180.544Z" fill="black"/>
<path d="M132.646 178.051C132.131 175.559 130.074 173.565 126.988 173.565C122.512 173.565 117.931 176.395 115.672 180.045C114.129 182.538 113.614 186.027 114.129 189.018C114.643 192.009 117.729 195 117.729 195H125.959C125.959 195 132.131 189.018 132.646 187.024C133.16 185.03 133.16 180.544 132.646 178.051Z" fill="black"/>
<path d="M87.8961 149.638H71.4365C71.4365 149.638 68.3504 150.635 67.3216 154.623C66.2929 158.611 68.3504 163.595 68.3504 163.595C71.6214 167.083 73.2367 169.079 78.6376 169.079C84.851 169.079 87.9401 165.675 91.4967 161.602C91.4967 161.602 92.5254 157.614 91.4967 154.623C90.468 151.632 87.8961 149.638 87.8961 149.638Z" fill="#F5A161"/>
<path d="M49.8333 143.656C49.8333 143.656 47.7758 152.629 47.7758 157.614C47.7758 162.599 48.5059 168.58 48.5059 168.58L49.8333 176.057L52.0723 185.03C52.0723 185.03 56.52 185.529 60.6349 185.03C64.7498 184.532 70.4078 182.039 70.4078 182.039L69.3791 172.568L68.3504 163.595C68.3504 163.595 66.2929 158.611 67.3216 154.623C68.3504 150.635 71.4365 149.638 71.4365 149.638C71.4365 149.638 63.7211 148.641 60.1206 148.143C56.52 147.644 49.8333 143.656 49.8333 143.656Z" fill="white"/>
<path d="M54.9769 195L53.4338 190.015L52.0723 185.03L49.8333 176.057L48.5059 168.58L28.2301 170.574C28.2301 170.574 31.3162 176.057 31.8306 181.541C32.345 187.024 31.8306 195 31.8306 195H54.9769Z" fill="white"/>
<path d="M53.4338 190.015L54.9769 195H72.4653C72.4653 195 71.9509 191.51 71.4365 188.52C70.9222 185.529 70.4078 182.039 70.4078 182.039C70.4078 182.039 64.7498 184.532 60.6349 185.03C56.52 185.529 52.0723 185.03 52.0723 185.03L53.4338 190.015Z" fill="black"/>
<path d="M157.251 126.21L163.938 132.191L171.139 136.179C173.272 133.423 179.369 128.203 171.139 124.216C162.909 120.228 157.251 126.21 157.251 126.21Z" fill="black"/>
<path d="M133.674 195C133.674 195 140.876 188.52 141.39 185.529C141.904 182.538 141.904 177.553 140.876 175.559C139.847 173.565 137.275 172.07 136.246 169.577C135.218 167.085 134.619 155.62 134.619 154.623C134.619 153.626 147.478 152.629 151.079 151.632C154.68 150.635 169.082 138.671 171.139 136.179L163.938 132.191L157.251 126.21C157.251 126.21 148.507 132.69 144.392 133.188C140.277 133.687 128.447 133.188 128.447 133.188C128.447 133.188 119.787 138.671 113.614 142.161C107.442 145.65 97.669 147.644 97.669 147.644L87.8961 149.638C87.8961 149.638 90.468 151.632 91.4967 154.623C92.5254 157.614 91.4967 161.602 91.4967 161.602C87.9401 165.675 84.851 169.079 78.6376 169.079C73.2367 169.079 71.6214 167.083 68.3504 163.595L69.3791 172.568L70.4078 182.039C70.4078 182.039 70.9222 185.529 71.4365 188.52C71.9509 191.51 72.4653 195 72.4653 195H117.729C117.729 195 114.643 192.009 114.129 189.018C113.614 186.027 114.129 182.538 115.672 180.045C117.931 176.395 122.512 173.565 126.988 173.565C130.074 173.565 132.131 175.559 132.646 178.051C133.16 180.544 133.16 185.03 132.646 187.024C132.131 189.018 125.959 195 125.959 195H133.674Z" fill="white"/>
<path d="M54.9769 195L53.4338 190.015L52.0723 185.03M54.9769 195H31.8306M54.9769 195H72.4653M28.2301 170.574C28.2301 170.574 17.4284 172.07 16.3997 180.544C15.371 189.018 24.1151 193.504 26.1726 194.003C28.2301 194.501 31.8306 195 31.8306 195M28.2301 170.574L48.5059 168.58M28.2301 170.574C28.2301 170.574 31.3162 176.057 31.8306 181.541C32.345 187.024 31.8306 195 31.8306 195M48.5059 168.58C48.5059 168.58 47.7758 162.599 47.7758 157.614C47.7758 152.629 49.8333 143.656 49.8333 143.656C49.8333 143.656 56.52 147.644 60.1206 148.143C63.7211 148.641 71.4365 149.638 71.4365 149.638M48.5059 168.58L49.8333 176.057L52.0723 185.03M87.8961 149.638L97.669 147.644C97.669 147.644 107.442 145.65 113.614 142.161C119.787 138.671 128.447 133.188 128.447 133.188C128.447 133.188 140.277 133.687 144.392 133.188C148.507 132.69 157.251 126.21 157.251 126.21M87.8961 149.638H71.4365M87.8961 149.638C87.8961 149.638 90.468 151.632 91.4967 154.623C92.5254 157.614 91.4967 161.602 91.4967 161.602C87.9401 165.675 84.851 169.079 78.6376 169.079C73.2367 169.079 71.6214 167.083 68.3504 163.595M71.4365 149.638C71.4365 149.638 68.3504 150.635 67.3216 154.623C66.2929 158.611 68.3504 163.595 68.3504 163.595M68.3504 163.595L69.3791 172.568L70.4078 182.039M125.959 195H133.674C133.674 195 140.876 188.52 141.39 185.529C141.904 182.538 141.904 177.553 140.876 175.559C139.847 173.565 137.275 172.07 136.246 169.577C135.218 167.085 134.619 155.62 134.619 154.623C134.619 153.626 147.478 152.629 151.079 151.632C154.68 150.635 169.082 138.671 171.139 136.179M125.959 195C125.959 195 132.131 189.018 132.646 187.024C133.16 185.03 133.16 180.544 132.646 178.051C132.131 175.559 130.074 173.565 126.988 173.565C122.512 173.565 117.931 176.395 115.672 180.045C114.129 182.538 113.614 186.027 114.129 189.018C114.643 192.009 117.729 195 117.729 195M125.959 195H117.729M117.729 195H72.4653M52.0723 185.03C52.0723 185.03 56.52 185.529 60.6349 185.03C64.7498 184.532 70.4078 182.039 70.4078 182.039M70.4078 182.039C70.4078 182.039 70.9222 185.529 71.4365 188.52C71.9509 191.51 72.4653 195 72.4653 195M157.251 126.21L163.938 132.191L171.139 136.179M157.251 126.21C157.251 126.21 162.909 120.228 171.139 124.216C179.369 128.203 173.272 133.423 171.139 136.179" stroke="black" stroke-width="5"/>
<path d="M52.5 142.017C57 144.517 57.5 145.017 67.5 147.017C77.5 149.017 84.5192 147.517 87.5 147.017C87.5 147.017 93.5 145.017 96.5 143.017C99.5 141.017 109 133.517 107.5 125.517C106 117.517 103 115.517 97 112.017C91 108.517 84 107.017 77 107.017C70 107.017 62.5 108.017 57.5 110.517C52.5 113.017 46 118.517 45.5 125.517C45 132.517 52.5 142.017 52.5 142.017Z" fill="#F5A161"/>
<path d="M10 108.517C10.8828 109.196 11.8956 109.778 13 110.262C13.8312 110.626 20.0128 112 22.5 112C25.8474 112 28.7906 111.278 30.5 110.98C34.4446 110.293 38.0192 109.517 38.0192 109.517C38.1247 108.678 38.2824 107.604 38.4484 106.473C38.6446 105.136 38.8526 103.719 39 102.517C39.4002 99.2523 40.2263 94.9886 41.1321 91.0168C41.1321 91.0168 34.5 95.5168 30 96.5168C25.5 97.5169 21 99.0168 17 100.517C13 102.017 11.7958 103.332 7.5 106.417C8.10734 107.051 8.92535 107.691 10 108.517Z" fill="#F5A161"/>
<path d="M126 92.0168C126 92.0168 127.5 98.5168 128.519 104.017C128.968 106.437 129.304 108.663 129.5 110.823C129.5 110.823 132 109.266 133 108.572C136.507 106.14 139.448 103.977 144 104.017C148.217 104.054 152.5 104.072 152.5 104.072C149.5 101.572 126 92.0168 126 92.0168Z" fill="#F5A161"/>
<path d="M38.5 123.017C39.4807 131.017 48 139.517 52.5 142.017C52.5 142.017 45 132.517 45.5 125.517C46 118.517 52.5 113.017 57.5 110.517C62.5 108.017 70 107.017 77 107.017C84 107.017 91 108.517 97 112.017C103 115.517 106 117.517 107.5 125.517C109 133.517 99.5 141.017 96.5 143.017C93.5 145.017 87.5 147.017 87.5 147.017C87.9251 146.946 88.5238 146.854 89.2554 146.742C93.654 146.069 102.856 144.66 108 142.517C109.174 142.028 110.177 141.653 111.082 141.315C114.805 139.925 116.889 139.147 122.519 133.517C128.831 127.206 129.045 124.552 129.379 120.427C129.415 119.976 129.453 119.509 129.5 119.017C129.769 116.217 129.749 113.573 129.5 110.823C129.304 108.663 128.968 106.437 128.519 104.017C127.5 98.5168 126 92.0168 126 92.0168L122.519 79.5168C113.5 83.0168 102.5 68.0724 102 66.5724C101.5 65.0723 102 66.5723 99.5 64.0724C97 61.5724 89.5 60.0724 89.5 60.0724C89.5 60.0724 91.5 53.9135 89.5 50.4135C86.4838 45.1352 80 37.9135 76 42.4135C72 46.9135 76 55.4135 74.5 52.4135C73 49.4135 57.5 51.4135 57.5 57.4136C57.5 63.4136 65 64.0724 65 64.0724L57.5 67.0724L44.5192 79.5168C43.9273 80.1087 42.4459 85.2556 41.1321 91.0168C40.2263 94.9886 39.4002 99.2523 39 102.517C38.8526 103.719 38.6446 105.136 38.4484 106.473C38.2824 107.604 38.1247 108.678 38.0192 109.517C37.4245 114.245 37.7855 117.189 38.483 122.878L38.5 123.017Z" fill="white"/>
<path d="M102 66.5724C102.5 68.0724 113.5 83.0168 122.519 79.5168C122.519 79.5168 129.5 74.0724 127 62.5724C125.832 57.1989 122.917 54.1179 120.143 52.3602C117.343 50.5862 114.449 53.3844 113.862 56.6466C113.611 58.0455 113.188 59.5589 112.5 61.0724C110 66.5724 102 66.5724 102 66.5724Z" fill="#F5A161"/>
<path d="M44.5192 79.5168L57.5 67.0724C57.5 67.0724 52.5 64.5724 50.5 60.0724C50.0598 59.082 49.7408 58.0916 49.5108 57.1492C48.7609 54.0762 45.9698 51.4182 43.2315 53.0017C40.4862 54.5891 37.7439 57.4505 37.5 62.5724C37 73.0724 44.5192 79.5168 44.5192 79.5168Z" fill="#F5A161"/>
<path d="M44.5192 79.5168C44.5192 79.5168 34.5 81.0168 26.5 84.0168C18.5 87.0168 11 93.5168 9 95.5168C7 97.5168 6 99.0168 6 102.017C6 104.161 6.41189 105.28 7.5 106.417C11.7958 103.332 13 102.017 17 100.517C21 99.0168 25.5 97.5169 30 96.5168C34.5 95.5168 41.1321 91.0168 41.1321 91.0168C42.4459 85.2556 43.9273 80.1087 44.5192 79.5168Z" fill="black"/>
<path d="M126 92.0168C126 92.0168 149.5 101.572 152.5 104.072C155.5 106.572 155.065 109.017 157 109.017C159.481 109.017 161.038 107.017 160.519 102.517C160 98.0168 158.038 95.0168 151.519 91.0168C145 87.0168 141.519 85.5168 135.019 83.0168C128.519 80.5168 122.519 79.5168 122.519 79.5168L126 92.0168Z" fill="black"/>
<path d="M44.5192 79.5168C44.5192 79.5168 34.5 81.0168 26.5 84.0168C18.5 87.0168 11 93.5168 9 95.5168C7 97.5168 6 99.0168 6 102.017C6 104.161 6.41189 105.28 7.5 106.417M44.5192 79.5168C43.9273 80.1087 42.4459 85.2556 41.1321 91.0168M44.5192 79.5168L57.5 67.0724M44.5192 79.5168C44.5192 79.5168 37 73.0724 37.5 62.5724C37.7439 57.4505 40.4862 54.5891 43.2315 53.0017C45.9698 51.4182 48.7609 54.0762 49.5108 57.1492C49.7408 58.0916 50.0598 59.082 50.5 60.0724C52.5 64.5724 57.5 67.0724 57.5 67.0724M38.5 123.017C39.4807 131.017 48 139.517 52.5 142.017M38.5 123.017L38.483 122.878M38.5 123.017C38.4943 122.97 38.4886 122.924 38.483 122.878M52.5 142.017C57 144.517 57.5 145.017 67.5 147.017C77.5 149.017 84.5192 147.517 87.5 147.017M52.5 142.017C52.5 142.017 45 132.517 45.5 125.517C46 118.517 52.5 113.017 57.5 110.517C62.5 108.017 70 107.017 77 107.017C84 107.017 91 108.517 97 112.017C103 115.517 106 117.517 107.5 125.517C109 133.517 99.5 141.017 96.5 143.017C93.5 145.017 87.5 147.017 87.5 147.017M87.5 147.017C87.9251 146.946 88.5238 146.854 89.2554 146.742C93.654 146.069 102.856 144.66 108 142.517C109.174 142.028 110.177 141.653 111.082 141.315C114.805 139.925 116.889 139.147 122.519 133.517C128.831 127.206 129.045 124.552 129.379 120.427C129.415 119.976 129.453 119.509 129.5 119.017C129.769 116.217 129.749 113.573 129.5 110.823M126 92.0168C126 92.0168 127.5 98.5168 128.519 104.017C128.968 106.437 129.304 108.663 129.5 110.823M126 92.0168C126 92.0168 149.5 101.572 152.5 104.072M126 92.0168L122.519 79.5168M152.5 104.072C155.5 106.572 155.065 109.017 157 109.017C159.481 109.017 161.038 107.017 160.519 102.517C160 98.0168 158.038 95.0168 151.519 91.0168C145 87.0168 141.519 85.5168 135.019 83.0168C128.519 80.5168 122.519 79.5168 122.519 79.5168M152.5 104.072C152.5 104.072 148.217 104.054 144 104.017C139.448 103.977 136.507 106.14 133 108.572C132 109.266 129.5 110.823 129.5 110.823M122.519 79.5168C113.5 83.0168 102.5 68.0724 102 66.5724M122.519 79.5168C122.519 79.5168 129.5 74.0724 127 62.5724C125.832 57.1989 122.917 54.1179 120.143 52.3602C117.343 50.5862 114.449 53.3844 113.862 56.6466C113.611 58.0455 113.188 59.5589 112.5 61.0724C110 66.5724 102 66.5724 102 66.5724M38.0192 109.517C37.4245 114.245 37.7855 117.189 38.483 122.878M38.0192 109.517C38.1247 108.678 38.2824 107.604 38.4484 106.473C38.6446 105.136 38.8526 103.719 39 102.517C39.4002 99.2523 40.2263 94.9886 41.1321 91.0168M38.0192 109.517C38.0192 109.517 34.4446 110.293 30.5 110.98C28.7906 111.278 25.8474 112 22.5 112C20.0128 112 13.8312 110.626 13 110.262C11.8956 109.778 10.8828 109.196 10 108.517C8.92535 107.691 8.10734 107.051 7.5 106.417M41.1321 91.0168C41.1321 91.0168 34.5 95.5168 30 96.5168C25.5 97.5169 21 99.0168 17 100.517C13 102.017 11.7958 103.332 7.5 106.417M57.5 67.0724L65 64.0724M65 64.0724C65 64.0724 57.5 63.4136 57.5 57.4136C57.5 51.4135 73 49.4135 74.5 52.4135C76 55.4135 72 46.9135 76 42.4135C80 37.9135 86.4838 45.1352 89.5 50.4135C91.5 53.9135 89.5 60.0724 89.5 60.0724C89.5 60.0724 97 61.5724 99.5 64.0724C102 66.5723 101.5 65.0723 102 66.5724M65 64.0724C65 64.0724 71 63.0723 70.5 64.0724C70 65.0724 62.5 70.2312 67 76.0723C71.5 81.9135 80 71.4135 76 68.4135" stroke="black" stroke-width="5"/>
<path d="M52.5 142.017C57 144.517 57.5 145.017 67.5 147.017C77.5 149.017 84.5192 147.517 87.5 147.017C87.5 147.017 93.5 145.017 96.5 143.017C99.5 141.017 109 133.517 107.5 125.517C106 117.517 103 115.517 97 112.017C91 108.517 84 107.017 77 107.017C70 107.017 62.5 108.017 57.5 110.517C52.5 113.017 46 118.517 45.5 125.517C45 132.517 52.5 142.017 52.5 142.017Z" fill="#F5A161"/>
<path d="M10 108.517C10.8828 109.196 11.8956 109.778 13 110.262C13.8312 110.626 20.0128 112 22.5 112C25.8474 112 28.7906 111.278 30.5 110.98C34.4446 110.293 38.0192 109.517 38.0192 109.517C38.1247 108.678 38.2824 107.604 38.4484 106.473C38.6446 105.136 38.8526 103.719 39 102.517C39.4002 99.2523 40.2263 94.9886 41.1321 91.0168C41.1321 91.0168 34.5 95.5168 30 96.5168C25.5 97.5169 21 99.0168 17 100.517C13 102.017 11.7958 103.332 7.5 106.417C8.10734 107.051 8.92535 107.691 10 108.517Z" fill="#F5A161"/>
<path d="M126 92.0168C126 92.0168 127.5 98.5168 128.519 104.017C128.968 106.437 129.304 108.663 129.5 110.823C129.5 110.823 132 109.266 133 108.572C136.507 106.14 139.448 103.977 144 104.017C148.217 104.054 152.5 104.072 152.5 104.072C149.5 101.572 126 92.0168 126 92.0168Z" fill="#F5A161"/>
<path d="M38.5 123.017C39.4807 131.017 48 139.517 52.5 142.017C52.5 142.017 45 132.517 45.5 125.517C46 118.517 52.5 113.017 57.5 110.517C62.5 108.017 70 107.017 77 107.017C84 107.017 91 108.517 97 112.017C103 115.517 106 117.517 107.5 125.517C109 133.517 99.5 141.017 96.5 143.017C93.5 145.017 87.5 147.017 87.5 147.017C87.9251 146.946 88.5238 146.854 89.2554 146.742C93.654 146.069 102.856 144.66 108 142.517C109.174 142.028 110.177 141.653 111.082 141.315C114.805 139.925 116.889 139.147 122.519 133.517C128.831 127.206 129.045 124.552 129.379 120.427C129.415 119.976 129.453 119.509 129.5 119.017C129.769 116.217 129.749 113.573 129.5 110.823C129.304 108.663 128.968 106.437 128.519 104.017C127.5 98.5168 126 92.0168 126 92.0168L122.519 79.5168C113.5 83.0168 102.5 68.0724 102 66.5724C101.5 65.0723 102 66.5723 99.5 64.0724C97 61.5724 89.5 60.0724 89.5 60.0724C89.5 60.0724 91.5 53.9135 89.5 50.4135C86.4838 45.1352 80 37.9135 76 42.4135C72 46.9135 76 55.4135 74.5 52.4135C73 49.4135 57.5 51.4135 57.5 57.4136C57.5 63.4136 65 64.0724 65 64.0724L57.5 67.0724L44.5192 79.5168C43.9273 80.1087 42.4459 85.2556 41.1321 91.0168C40.2263 94.9886 39.4002 99.2523 39 102.517C38.8526 103.719 38.6446 105.136 38.4484 106.473C38.2824 107.604 38.1247 108.678 38.0192 109.517C37.4245 114.245 37.7855 117.189 38.483 122.878L38.5 123.017Z" fill="white"/>
<path d="M102 66.5724C102.5 68.0724 113.5 83.0168 122.519 79.5168C122.519 79.5168 129.5 74.0724 127 62.5724C125.832 57.1989 122.917 54.1179 120.143 52.3602C117.343 50.5862 114.449 53.3844 113.862 56.6466C113.611 58.0455 113.188 59.5589 112.5 61.0724C110 66.5724 102 66.5724 102 66.5724Z" fill="#F5A161"/>
<path d="M44.5192 79.5168L57.5 67.0724C57.5 67.0724 52.5 64.5724 50.5 60.0724C50.0598 59.082 49.7408 58.0916 49.5108 57.1492C48.7609 54.0762 45.9698 51.4182 43.2315 53.0017C40.4862 54.5891 37.7439 57.4505 37.5 62.5724C37 73.0724 44.5192 79.5168 44.5192 79.5168Z" fill="#F5A161"/>
<path d="M44.5192 79.5168C44.5192 79.5168 34.5 81.0168 26.5 84.0168C18.5 87.0168 11 93.5168 9 95.5168C7 97.5168 6 99.0168 6 102.017C6 104.161 6.41189 105.28 7.5 106.417C11.7958 103.332 13 102.017 17 100.517C21 99.0168 25.5 97.5169 30 96.5168C34.5 95.5168 41.1321 91.0168 41.1321 91.0168C42.4459 85.2556 43.9273 80.1087 44.5192 79.5168Z" fill="black"/>
<path d="M126 92.0168C126 92.0168 149.5 101.572 152.5 104.072C155.5 106.572 155.065 109.017 157 109.017C159.481 109.017 161.038 107.017 160.519 102.517C160 98.0168 158.038 95.0168 151.519 91.0168C145 87.0168 141.519 85.5168 135.019 83.0168C128.519 80.5168 122.519 79.5168 122.519 79.5168L126 92.0168Z" fill="black"/>
<path d="M44.5192 79.5168C44.5192 79.5168 34.5 81.0168 26.5 84.0168C18.5 87.0168 11 93.5168 9 95.5168C7 97.5168 6 99.0168 6 102.017C6 104.161 6.41189 105.28 7.5 106.417M44.5192 79.5168C43.9273 80.1087 42.4459 85.2556 41.1321 91.0168M44.5192 79.5168L57.5 67.0724M44.5192 79.5168C44.5192 79.5168 37 73.0724 37.5 62.5724C37.7439 57.4505 40.4862 54.5891 43.2315 53.0017C45.9698 51.4182 48.7609 54.0762 49.5108 57.1492C49.7408 58.0916 50.0598 59.082 50.5 60.0724C52.5 64.5724 57.5 67.0724 57.5 67.0724M38.5 123.017C39.4807 131.017 48 139.517 52.5 142.017M38.5 123.017L38.483 122.878M38.5 123.017C38.4943 122.97 38.4886 122.924 38.483 122.878M52.5 142.017C57 144.517 57.5 145.017 67.5 147.017C77.5 149.017 84.5192 147.517 87.5 147.017M52.5 142.017C52.5 142.017 45 132.517 45.5 125.517C46 118.517 52.5 113.017 57.5 110.517C62.5 108.017 70 107.017 77 107.017C84 107.017 91 108.517 97 112.017C103 115.517 106 117.517 107.5 125.517C109 133.517 99.5 141.017 96.5 143.017C93.5 145.017 87.5 147.017 87.5 147.017M87.5 147.017C87.9251 146.946 88.5238 146.854 89.2554 146.742C93.654 146.069 102.856 144.66 108 142.517C109.174 142.028 110.177 141.653 111.082 141.315C114.805 139.925 116.889 139.147 122.519 133.517C128.831 127.206 129.045 124.552 129.379 120.427C129.415 119.976 129.453 119.509 129.5 119.017C129.769 116.217 129.749 113.573 129.5 110.823M126 92.0168C126 92.0168 127.5 98.5168 128.519 104.017C128.968 106.437 129.304 108.663 129.5 110.823M126 92.0168C126 92.0168 149.5 101.572 152.5 104.072M126 92.0168L122.519 79.5168M152.5 104.072C155.5 106.572 155.065 109.017 157 109.017C159.481 109.017 161.038 107.017 160.519 102.517C160 98.0168 158.038 95.0168 151.519 91.0168C145 87.0168 141.519 85.5168 135.019 83.0168C128.519 80.5168 122.519 79.5168 122.519 79.5168M152.5 104.072C152.5 104.072 148.217 104.054 144 104.017C139.448 103.977 136.507 106.14 133 108.572C132 109.266 129.5 110.823 129.5 110.823M122.519 79.5168C113.5 83.0168 102.5 68.0724 102 66.5724M122.519 79.5168C122.519 79.5168 129.5 74.0724 127 62.5724C125.832 57.1989 122.917 54.1179 120.143 52.3602C117.343 50.5862 114.449 53.3844 113.862 56.6466C113.611 58.0455 113.188 59.5589 112.5 61.0724C110 66.5724 102 66.5724 102 66.5724M38.0192 109.517C37.4245 114.245 37.7855 117.189 38.483 122.878M38.0192 109.517C38.1247 108.678 38.2824 107.604 38.4484 106.473C38.6446 105.136 38.8526 103.719 39 102.517C39.4002 99.2523 40.2263 94.9886 41.1321 91.0168M38.0192 109.517C38.0192 109.517 34.4446 110.293 30.5 110.98C28.7906 111.278 25.8474 112 22.5 112C20.0128 112 13.8312 110.626 13 110.262C11.8956 109.778 10.8828 109.196 10 108.517C8.92535 107.691 8.10734 107.051 7.5 106.417M41.1321 91.0168C41.1321 91.0168 34.5 95.5168 30 96.5168C25.5 97.5169 21 99.0168 17 100.517C13 102.017 11.7958 103.332 7.5 106.417M57.5 67.0724L65 64.0724M65 64.0724C65 64.0724 57.5 63.4136 57.5 57.4136C57.5 51.4135 73 49.4135 74.5 52.4135C76 55.4135 72 46.9135 76 42.4135C80 37.9135 86.4838 45.1352 89.5 50.4135C91.5 53.9135 89.5 60.0724 89.5 60.0724C89.5 60.0724 97 61.5724 99.5 64.0724C102 66.5723 101.5 65.0723 102 66.5724M65 64.0724C65 64.0724 71 63.0723 70.5 64.0724C70 65.0724 62.5 70.2312 67 76.0723C71.5 81.9135 80 71.4135 76 68.4135" stroke="black" stroke-width="5"/>
<ellipse cx="84.5174" cy="125.464" rx="4.48276" ry="6.46381" fill="black"/>
<ellipse cx="67.4828" cy="125.464" rx="4.48276" ry="6.46381" fill="black"/>
<ellipse cx="101.5" cy="97.0166" rx="5.5" ry="7.5" fill="black"/>
<ellipse cx="101.5" cy="97.0166" rx="5.5" ry="7.5" fill="black"/>
<ellipse cx="101.5" cy="97.0166" rx="5.5" ry="7.5" fill="black"/>
<ellipse cx="58.5" cy="97.0166" rx="5.5" ry="7.5" fill="black"/>
<ellipse cx="58.5" cy="97.0166" rx="5.5" ry="7.5" fill="black"/>
<ellipse cx="58.5" cy="97.0166" rx="5.5" ry="7.5" fill="black"/>
<path d="M142.5 105.072C142.5 105.072 141.5 107.572 141 109.072C140.5 110.572 140 114.072 144 114.072C148 114.072 147 110.572 146.5 109.072C146 107.572 145 105.072 145 105.072C145 105.072 148.5 105.072 150 106.072C151.5 107.072 153.5 109.572 153.5 114.072C153.5 118.572 150 121.072 148.5 122.072C147 123.072 144 123.072 144 123.072C144 123.072 141 123.072 139 122.072C137 121.072 134 118.072 134 114.072C134 110.072 136 107.072 137.5 106.072C139 105.072 142.5 105.072 142.5 105.072Z" fill="white" stroke="black" stroke-width="3"/>
<path d="M128.447 143.158C118.96 142.593 115.588 150.328 115.588 152.13C115.588 153.932 118.717 160.039 121.246 161.601C123.775 163.163 132.562 161.601 132.562 161.601C132.562 161.601 132.048 155.62 132.048 155.121C132.048 154.622 132.562 153.127 133.076 152.629C133.591 152.13 137.706 151.133 137.706 151.133C137.706 151.133 137.934 143.722 128.447 143.158Z" fill="#F5A161"/>
<path d="M158.566 57.0028C160.184 52.8926 164.856 50.803 169.001 52.3356L220.818 71.4952C224.963 73.0278 227.011 77.6023 225.393 81.7126L213.616 111.625C212.011 115.701 207.399 117.796 203.27 116.324L182.715 108.997L170.702 104.551L151.273 97.1007C147.183 95.5322 145.184 90.9927 146.788 86.9174L158.566 57.0028Z" fill="#FBF8D9"/>
<path d="M182.715 108.997L170.702 104.551C170.702 104.551 157.833 127.428 167.443 130.984C177.053 134.541 182.715 108.997 182.715 108.997Z" fill="#FBF8D9"/>
<path d="M182.715 108.997L203.27 116.324C207.399 117.796 212.011 115.701 213.616 111.625L225.393 81.7126C227.011 77.6023 224.963 73.0278 220.818 71.4952L169.001 52.3356C164.856 50.803 160.184 52.8926 158.566 57.0028L146.788 86.9174C145.184 90.9927 147.183 95.5322 151.273 97.1007L170.702 104.551M182.715 108.997L170.702 104.551M182.715 108.997C182.715 108.997 177.053 134.541 167.443 130.984C157.833 127.428 170.702 104.551 170.702 104.551" stroke="black" stroke-width="5"/>
<path d="M168.792 78.3226C167.027 77.6451 165.007 78.5304 164.732 80.4008C164.547 81.6634 164.513 82.9582 164.635 84.2648C164.866 86.7431 165.649 89.2153 166.94 91.5401C168.231 93.8649 170.006 95.9969 172.161 97.8143C173.6 99.0272 175.19 100.084 176.888 100.96C178.295 101.686 179.963 100.934 180.531 99.4554V99.4554C181.098 97.9771 180.344 96.3382 178.975 95.5427C178.098 95.0337 177.271 94.4526 176.505 93.8073C175.022 92.5566 173.801 91.0894 172.912 89.4895C172.024 87.8896 171.485 86.1883 171.326 84.4828C171.276 83.9465 171.264 83.4131 171.29 82.8855C171.381 80.9973 170.557 79.0001 168.792 78.3226V78.3226Z" fill="#F5A161"/>
</svg>
