<svg width="163" height="121" viewBox="0 0 163 121" fill="none" xmlns="http://www.w3.org/2000/svg">
<path d="M123.719 0.171875H39.2812C28.8876 0.183847 18.9231 4.31801 11.5737 11.6674C4.22426 19.0168 0.090097 28.9814 0.078125 39.375V111.75C0.078125 114.149 1.03128 116.45 2.72789 118.147C4.42451 119.844 6.72562 120.797 9.125 120.797H153.875C156.274 120.797 158.575 119.844 160.272 118.147C161.969 116.45 162.922 114.149 162.922 111.75V39.375C162.91 28.9814 158.776 19.0168 151.426 11.6674C144.077 4.31801 134.112 0.183847 123.719 0.171875ZM156.891 39.375V48.4219H126.734V6.34637C134.971 7.10857 142.627 10.9164 148.204 17.025C153.781 23.1336 156.879 31.1033 156.891 39.375ZM90.5469 72.5469H72.4531V42.3906H90.5469V72.5469ZM69.4375 78.5781H93.5625C94.3623 78.5781 95.1293 78.2604 95.6949 77.6949C96.2604 77.1293 96.5781 76.3623 96.5781 75.5625V54.4531H120.703V114.766H42.2969V54.4531H66.4219V75.5625C66.4219 76.3623 66.7396 77.1293 67.3051 77.6949C67.8707 78.2604 68.6377 78.5781 69.4375 78.5781ZM96.5781 48.4219V39.375C96.5781 38.5752 96.2604 37.8082 95.6949 37.2426C95.1293 36.6771 94.3623 36.3594 93.5625 36.3594H69.4375C68.6377 36.3594 67.8707 36.6771 67.3051 37.2426C66.7396 37.8082 66.4219 38.5752 66.4219 39.375V48.4219H42.2969V6.20312H120.703V48.4219H96.5781ZM36.2656 6.34637V48.4219H6.10938V39.375C6.12112 31.1033 9.21865 23.1336 14.796 17.025C20.3733 10.9164 28.0291 7.10857 36.2656 6.34637ZM6.10938 111.75V54.4531H36.2656V114.766H9.125C8.32521 114.766 7.55817 114.448 6.99263 113.882C6.42709 113.317 6.10938 112.55 6.10938 111.75ZM153.875 114.766H126.734V54.4531H156.891V111.75C156.891 112.55 156.573 113.317 156.007 113.882C155.442 114.448 154.675 114.766 153.875 114.766Z" fill="#DC6C04"/>
<path d="M96.5781 48.4219V39.375C96.5781 38.5752 96.2604 37.8082 95.6949 37.2426C95.1293 36.6771 94.3623 36.3594 93.5625 36.3594H69.4375C68.6377 36.3594 67.8707 36.6771 67.3051 37.2426C66.7396 37.8082 66.4219 38.5752 66.4219 39.375V48.4219H42.2969V6.20312H120.703V48.4219H96.5781Z" fill="#F9AF04"/>
<path d="M156.891 39.375V48.4219H126.734V6.34637C134.971 7.10857 142.627 10.9164 148.204 17.025C153.781 23.1336 156.879 31.1033 156.891 39.375Z" fill="#F9AF04"/>
<path d="M36.2656 6.34637V48.4219H6.10938V39.375C6.12112 31.1033 9.21865 23.1336 14.796 17.025C20.3733 10.9164 28.0291 7.10857 36.2656 6.34637Z" fill="#F9AF04"/>
<path d="M6.10938 111.75V54.4531H36.2656V114.766H9.125C8.32521 114.766 7.55817 114.448 6.99263 113.882C6.42709 113.317 6.10938 112.55 6.10938 111.75Z" fill="#F9AF04"/>
<path d="M69.4375 78.5781H93.5625C94.3623 78.5781 95.1293 78.2604 95.6949 77.6949C96.2604 77.1293 96.5781 76.3623 96.5781 75.5625V54.4531H120.703V114.766H42.2969V54.4531H66.4219V75.5625C66.4219 76.3623 66.7396 77.1293 67.3051 77.6949C67.8707 78.2604 68.6377 78.5781 69.4375 78.5781Z" fill="#F9AF04"/>
<path d="M153.875 114.766H126.734V54.4531H156.891V111.75C156.891 112.55 156.573 113.317 156.007 113.882C155.442 114.448 154.675 114.766 153.875 114.766Z" fill="#F9AF04"/>
<path d="M90.5469 72.5469H72.4531V42.3906H90.5469V72.5469Z" fill="#FF9C1C"/>
<path d="M123.719 0.171875H39.2812C28.8876 0.183847 18.9231 4.31801 11.5737 11.6674C4.22426 19.0168 0.090097 28.9814 0.078125 39.375V111.75C0.078125 114.149 1.03128 116.45 2.72789 118.147C4.42451 119.844 6.72562 120.797 9.125 120.797H153.875C156.274 120.797 158.575 119.844 160.272 118.147C161.969 116.45 162.922 114.149 162.922 111.75V39.375C162.91 28.9814 158.776 19.0168 151.426 11.6674C144.077 4.31801 134.112 0.183847 123.719 0.171875ZM156.891 39.375V48.4219H126.734V6.34637C134.971 7.10857 142.627 10.9164 148.204 17.025C153.781 23.1336 156.879 31.1033 156.891 39.375ZM90.5469 72.5469H72.4531V42.3906H90.5469V72.5469ZM69.4375 78.5781H93.5625C94.3623 78.5781 95.1293 78.2604 95.6949 77.6949C96.2604 77.1293 96.5781 76.3623 96.5781 75.5625V54.4531H120.703V114.766H42.2969V54.4531H66.4219V75.5625C66.4219 76.3623 66.7396 77.1293 67.3051 77.6949C67.8707 78.2604 68.6377 78.5781 69.4375 78.5781ZM96.5781 48.4219V39.375C96.5781 38.5752 96.2604 37.8082 95.6949 37.2426C95.1293 36.6771 94.3623 36.3594 93.5625 36.3594H69.4375C68.6377 36.3594 67.8707 36.6771 67.3051 37.2426C66.7396 37.8082 66.4219 38.5752 66.4219 39.375V48.4219H42.2969V6.20312H120.703V48.4219H96.5781ZM36.2656 6.34637V48.4219H6.10938V39.375C6.12112 31.1033 9.21865 23.1336 14.796 17.025C20.3733 10.9164 28.0291 7.10857 36.2656 6.34637ZM6.10938 111.75V54.4531H36.2656V114.766H9.125C8.32521 114.766 7.55817 114.448 6.99263 113.882C6.42709 113.317 6.10938 112.55 6.10938 111.75ZM153.875 114.766H126.734V54.4531H156.891V111.75C156.891 112.55 156.573 113.317 156.007 113.882C155.442 114.448 154.675 114.766 153.875 114.766Z" stroke="#DC6C04"/>
<path d="M96.5781 48.4219V39.375C96.5781 38.5752 96.2604 37.8082 95.6949 37.2426C95.1293 36.6771 94.3623 36.3594 93.5625 36.3594H69.4375C68.6377 36.3594 67.8707 36.6771 67.3051 37.2426C66.7396 37.8082 66.4219 38.5752 66.4219 39.375V48.4219H42.2969V6.20312H120.703V48.4219H96.5781Z" stroke="#DC6C04"/>
<path d="M156.891 39.375V48.4219H126.734V6.34637C134.971 7.10857 142.627 10.9164 148.204 17.025C153.781 23.1336 156.879 31.1033 156.891 39.375Z" stroke="#DC6C04"/>
<path d="M36.2656 6.34637V48.4219H6.10938V39.375C6.12112 31.1033 9.21865 23.1336 14.796 17.025C20.3733 10.9164 28.0291 7.10857 36.2656 6.34637Z" stroke="#DC6C04"/>
<path d="M6.10938 111.75V54.4531H36.2656V114.766H9.125C8.32521 114.766 7.55817 114.448 6.99263 113.882C6.42709 113.317 6.10938 112.55 6.10938 111.75Z" stroke="#DC6C04"/>
<path d="M69.4375 78.5781H93.5625C94.3623 78.5781 95.1293 78.2604 95.6949 77.6949C96.2604 77.1293 96.5781 76.3623 96.5781 75.5625V54.4531H120.703V114.766H42.2969V54.4531H66.4219V75.5625C66.4219 76.3623 66.7396 77.1293 67.3051 77.6949C67.8707 78.2604 68.6377 78.5781 69.4375 78.5781Z" stroke="#DC6C04"/>
<path d="M153.875 114.766H126.734V54.4531H156.891V111.75C156.891 112.55 156.573 113.317 156.007 113.882C155.442 114.448 154.675 114.766 153.875 114.766Z" stroke="#DC6C04"/>
<path d="M90.5469 72.5469H72.4531V42.3906H90.5469V72.5469Z" stroke="#DC6C04"/>
</svg>
