<svg width="193" height="193" viewBox="0 0 193 193" fill="none" xmlns="http://www.w3.org/2000/svg">
<path d="M138.719 33.1719H54.2812C43.8876 33.1838 33.9231 37.318 26.5737 44.6674C19.2243 52.0168 15.0901 61.9814 15.0781 72.375V144.75C15.0781 147.149 16.0313 149.45 17.7279 151.147C19.4245 152.844 21.7256 153.797 24.125 153.797H168.875C171.274 153.797 173.575 152.844 175.272 151.147C176.969 149.45 177.922 147.149 177.922 144.75V72.375C177.91 61.9814 173.776 52.0168 166.426 44.6674C159.077 37.318 149.112 33.1838 138.719 33.1719ZM171.891 72.375V81.4219H141.734V39.3464C149.971 40.1086 157.627 43.9164 163.204 50.025C168.781 56.1336 171.879 64.1033 171.891 72.375ZM105.547 105.547H87.4531V75.3906H105.547V105.547ZM84.4375 111.578H108.562C109.362 111.578 110.129 111.26 110.695 110.695C111.26 110.129 111.578 109.362 111.578 108.562V87.4531H135.703V147.766H57.2969V87.4531H81.4219V108.562C81.4219 109.362 81.7396 110.129 82.3051 110.695C82.8707 111.26 83.6377 111.578 84.4375 111.578ZM111.578 81.4219V72.375C111.578 71.5752 111.26 70.8082 110.695 70.2426C110.129 69.6771 109.362 69.3594 108.562 69.3594H84.4375C83.6377 69.3594 82.8707 69.6771 82.3051 70.2426C81.7396 70.8082 81.4219 71.5752 81.4219 72.375V81.4219H57.2969V39.2031H135.703V81.4219H111.578ZM51.2656 39.3464V81.4219H21.1094V72.375C21.1211 64.1033 24.2187 56.1336 29.796 50.025C35.3733 43.9164 43.0291 40.1086 51.2656 39.3464ZM21.1094 144.75V87.4531H51.2656V147.766H24.125C23.3252 147.766 22.5582 147.448 21.9926 146.882C21.4271 146.317 21.1094 145.55 21.1094 144.75ZM168.875 147.766H141.734V87.4531H171.891V144.75C171.891 145.55 171.573 146.317 171.007 146.882C170.442 147.448 169.675 147.766 168.875 147.766Z" fill="black"/>
<path d="M111.578 81.4219V72.375C111.578 71.5752 111.26 70.8082 110.695 70.2426C110.129 69.6771 109.362 69.3594 108.562 69.3594H84.4375C83.6377 69.3594 82.8707 69.6771 82.3051 70.2426C81.7396 70.8082 81.4219 71.5752 81.4219 72.375V81.4219H57.2969V39.2031H135.703V81.4219H111.578Z" fill="#F9AF04"/>
<path d="M171.891 72.375V81.4219H141.734V39.3464C149.971 40.1086 157.627 43.9164 163.204 50.025C168.781 56.1336 171.879 64.1033 171.891 72.375Z" fill="#F9AF04"/>
<path d="M51.2656 39.3464V81.4219H21.1094V72.375C21.1211 64.1033 24.2187 56.1336 29.796 50.025C35.3733 43.9164 43.0291 40.1086 51.2656 39.3464Z" fill="#F9AF04"/>
<path d="M21.1094 144.75V87.4531H51.2656V147.766H24.125C23.3252 147.766 22.5582 147.448 21.9926 146.882C21.4271 146.317 21.1094 145.55 21.1094 144.75Z" fill="#F9AF04"/>
<path d="M84.4375 111.578H108.562C109.362 111.578 110.129 111.26 110.695 110.695C111.26 110.129 111.578 109.362 111.578 108.562V87.4531H135.703V147.766H57.2969V87.4531H81.4219V108.562C81.4219 109.362 81.7396 110.129 82.3051 110.695C82.8707 111.26 83.6377 111.578 84.4375 111.578Z" fill="#F9AF04"/>
<path d="M168.875 147.766H141.734V87.4531H171.891V144.75C171.891 145.55 171.573 146.317 171.007 146.882C170.442 147.448 169.675 147.766 168.875 147.766Z" fill="#F9AF04"/>
<path d="M105.547 105.547H87.4531V75.3906H105.547V105.547Z" fill="#FF9C1C"/>
<path d="M138.719 33.1719H54.2812C43.8876 33.1838 33.9231 37.318 26.5737 44.6674C19.2243 52.0168 15.0901 61.9814 15.0781 72.375V144.75C15.0781 147.149 16.0313 149.45 17.7279 151.147C19.4245 152.844 21.7256 153.797 24.125 153.797H168.875C171.274 153.797 173.575 152.844 175.272 151.147C176.969 149.45 177.922 147.149 177.922 144.75V72.375C177.91 61.9814 173.776 52.0168 166.426 44.6674C159.077 37.318 149.112 33.1838 138.719 33.1719ZM171.891 72.375V81.4219H141.734V39.3464C149.971 40.1086 157.627 43.9164 163.204 50.025C168.781 56.1336 171.879 64.1033 171.891 72.375ZM105.547 105.547H87.4531V75.3906H105.547V105.547ZM84.4375 111.578H108.562C109.362 111.578 110.129 111.26 110.695 110.695C111.26 110.129 111.578 109.362 111.578 108.562V87.4531H135.703V147.766H57.2969V87.4531H81.4219V108.562C81.4219 109.362 81.7396 110.129 82.3051 110.695C82.8707 111.26 83.6377 111.578 84.4375 111.578ZM111.578 81.4219V72.375C111.578 71.5752 111.26 70.8082 110.695 70.2426C110.129 69.6771 109.362 69.3594 108.562 69.3594H84.4375C83.6377 69.3594 82.8707 69.6771 82.3051 70.2426C81.7396 70.8082 81.4219 71.5752 81.4219 72.375V81.4219H57.2969V39.2031H135.703V81.4219H111.578ZM51.2656 39.3464V81.4219H21.1094V72.375C21.1211 64.1033 24.2187 56.1336 29.796 50.025C35.3733 43.9164 43.0291 40.1086 51.2656 39.3464ZM21.1094 144.75V87.4531H51.2656V147.766H24.125C23.3252 147.766 22.5582 147.448 21.9926 146.882C21.4271 146.317 21.1094 145.55 21.1094 144.75ZM168.875 147.766H141.734V87.4531H171.891V144.75C171.891 145.55 171.573 146.317 171.007 146.882C170.442 147.448 169.675 147.766 168.875 147.766Z" stroke="black"/>
<path d="M111.578 81.4219V72.375C111.578 71.5752 111.26 70.8082 110.695 70.2426C110.129 69.6771 109.362 69.3594 108.562 69.3594H84.4375C83.6377 69.3594 82.8707 69.6771 82.3051 70.2426C81.7396 70.8082 81.4219 71.5752 81.4219 72.375V81.4219H57.2969V39.2031H135.703V81.4219H111.578Z" stroke="black"/>
<path d="M171.891 72.375V81.4219H141.734V39.3464C149.971 40.1086 157.627 43.9164 163.204 50.025C168.781 56.1336 171.879 64.1033 171.891 72.375Z" stroke="black"/>
<path d="M51.2656 39.3464V81.4219H21.1094V72.375C21.1211 64.1033 24.2187 56.1336 29.796 50.025C35.3733 43.9164 43.0291 40.1086 51.2656 39.3464Z" stroke="black"/>
<path d="M21.1094 144.75V87.4531H51.2656V147.766H24.125C23.3252 147.766 22.5582 147.448 21.9926 146.882C21.4271 146.317 21.1094 145.55 21.1094 144.75Z" stroke="black"/>
<path d="M84.4375 111.578H108.562C109.362 111.578 110.129 111.26 110.695 110.695C111.26 110.129 111.578 109.362 111.578 108.562V87.4531H135.703V147.766H57.2969V87.4531H81.4219V108.562C81.4219 109.362 81.7396 110.129 82.3051 110.695C82.8707 111.26 83.6377 111.578 84.4375 111.578Z" stroke="black"/>
<path d="M168.875 147.766H141.734V87.4531H171.891V144.75C171.891 145.55 171.573 146.317 171.007 146.882C170.442 147.448 169.675 147.766 168.875 147.766Z" stroke="black"/>
<path d="M105.547 105.547H87.4531V75.3906H105.547V105.547Z" stroke="black"/>
</svg>
