<svg width="34" height="34" viewBox="0 0 34 34" fill="none" xmlns="http://www.w3.org/2000/svg">
<mask id="path-1-inside-1_57_10593" fill="white">
<path d="M0 17C0 7.61116 7.61116 0 17 0C26.3888 0 34 7.61116 34 17C34 26.3888 26.3888 34 17 34C7.61116 34 0 26.3888 0 17Z"/>
</mask>
<path d="M0 17C0 7.61116 7.61116 0 17 0C26.3888 0 34 7.61116 34 17C34 26.3888 26.3888 34 17 34C7.61116 34 0 26.3888 0 17Z" fill="#F5A161"/>
<path d="M-1 17C-1 7.05887 7.05887 -1 17 -1C26.9411 -1 35 7.05887 35 17H33C33 8.16344 25.8366 1 17 1C8.16344 1 1 8.16344 1 17H-1ZM35 18C35 27.9411 26.9411 36 17 36C7.05887 36 -1 27.9411 -1 18L1 17C1 25.2843 8.16344 32 17 32C25.8366 32 33 25.2843 33 17L35 18ZM17 36C7.05887 36 -1 27.9411 -1 18V17C-1 7.05887 7.05887 -1 17 -1V1C8.16344 1 1 8.16344 1 17C1 25.2843 8.16344 32 17 32V36ZM17 -1C26.9411 -1 35 7.05887 35 17V18C35 27.9411 26.9411 36 17 36V32C25.8366 32 33 25.2843 33 17C33 8.16344 25.8366 1 17 1V-1Z" fill="black" mask="url(#path-1-inside-1_57_10593)"/>
<path d="M15.5104 16.998L20.4753 12.0371C20.8425 11.6699 20.8425 11.0762 20.4753 10.7129C20.1081 10.3457 19.5143 10.3496 19.1471 10.7129L13.5221 16.334C13.1667 16.6895 13.1589 17.2598 13.4948 17.627L19.1432 23.2871C19.3268 23.4707 19.569 23.5605 19.8073 23.5605C20.0456 23.5605 20.2878 23.4707 20.4714 23.2871C20.8385 22.9199 20.8385 22.3262 20.4714 21.9629L15.5104 16.998Z" fill="black"/>
</svg>
