<svg width="43" height="43" viewBox="0 0 43 43" fill="none" xmlns="http://www.w3.org/2000/svg">
<path d="M21.5 0C9.62298 0 0 9.62298 0 21.5C0 33.377 9.62298 43 21.5 43C33.377 43 43 33.377 43 21.5C43 9.62298 33.377 0 21.5 0ZM21.5 8.32258C25.7133 8.32258 29.129 11.7383 29.129 15.9516C29.129 20.1649 25.7133 23.5806 21.5 23.5806C17.2867 23.5806 13.871 20.1649 13.871 15.9516C13.871 11.7383 17.2867 8.32258 21.5 8.32258ZM21.5 38.1452C16.4111 38.1452 11.851 35.8391 8.7994 32.2327C10.4292 29.1637 13.6196 27.0484 17.3387 27.0484C17.5468 27.0484 17.7548 27.0831 17.9542 27.1438C19.0812 27.5079 20.2603 27.7419 21.5 27.7419C22.7397 27.7419 23.9274 27.5079 25.0458 27.1438C25.2452 27.0831 25.4532 27.0484 25.6613 27.0484C29.3804 27.0484 32.5708 29.1637 34.2006 32.2327C31.149 35.8391 26.5889 38.1452 21.5 38.1452Z" fill="#F9AF01"/>
<path d="M21.5 38.1452C16.4111 38.1452 11.851 35.8391 8.7994 32.2327C10.4292 29.1637 13.6196 27.0484 17.3387 27.0484C17.5468 27.0484 17.7548 27.0831 17.9542 27.1438C19.0812 27.5079 20.2603 27.7419 21.5 27.7419C22.7397 27.7419 23.9274 27.5079 25.0458 27.1438C25.2452 27.0831 25.4532 27.0484 25.6613 27.0484C29.3804 27.0484 32.5708 29.1637 34.2006 32.2327C31.149 35.8391 26.5889 38.1452 21.5 38.1452Z" fill="#DC6C02"/>
<path d="M21.5 8.32258C25.7133 8.32258 29.129 11.7383 29.129 15.9516C29.129 20.1649 25.7133 23.5806 21.5 23.5806C17.2867 23.5806 13.871 20.1649 13.871 15.9516C13.871 11.7383 17.2867 8.32258 21.5 8.32258Z" fill="#DC6C02"/>
</svg>
