<svg width="34" height="34" viewBox="0 0 34 34" fill="none" xmlns="http://www.w3.org/2000/svg">
<mask id="path-1-inside-1_106_226" fill="white">
<path d="M0 17C0 7.61116 7.61116 0 17 0C26.3888 0 34 7.61116 34 17C34 26.3888 26.3888 34 17 34C7.61116 34 0 26.3888 0 17Z"/>
</mask>
<path d="M0 17C0 7.61116 7.61116 0 17 0C26.3888 0 34 7.61116 34 17C34 26.3888 26.3888 34 17 34C7.61116 34 0 26.3888 0 17Z" fill="#F5A161"/>
<path d="M-1 17C-1 7.05887 7.05887 -1 17 -1C26.9411 -1 35 7.05887 35 17H33C33 8.16344 25.8366 1 17 1C8.16344 1 1 8.16344 1 17H-1ZM35 18C35 27.9411 26.9411 36 17 36C7.05887 36 -1 27.9411 -1 18L1 17C1 25.2843 8.16344 32 17 32C25.8366 32 33 25.2843 33 17L35 18ZM17 36C7.05887 36 -1 27.9411 -1 18V17C-1 7.05887 7.05887 -1 17 -1V1C8.16344 1 1 8.16344 1 17C1 25.2843 8.16344 32 17 32V36ZM17 -1C26.9411 -1 35 7.05887 35 17V18C35 27.9411 26.9411 36 17 36V32C25.8366 32 33 25.2843 33 17C33 8.16344 25.8366 1 17 1V-1Z" fill="black" mask="url(#path-1-inside-1_106_226)"/>
<path d="M25.7623 19.2879L24.3723 18.1629C24.4381 17.7811 24.4721 17.3914 24.4721 17.0016C24.4721 16.6119 24.4381 16.2221 24.3723 15.8404L25.7623 14.7153C25.8672 14.6303 25.9422 14.5172 25.9775 14.3908C26.0127 14.2645 26.0065 14.131 25.9597 14.0081L25.9406 13.9559C25.5579 12.9434 24.9849 12.0047 24.2492 11.1854L24.211 11.1432C24.1218 11.0438 24.0028 10.9724 23.8699 10.9384C23.7369 10.9043 23.5961 10.9092 23.4662 10.9523L21.7409 11.5329C21.1042 11.0387 20.3933 10.649 19.6251 10.3757L19.2919 8.66802C19.2668 8.53952 19.2009 8.42131 19.1031 8.32908C19.0053 8.23686 18.8802 8.17498 18.7444 8.15168L18.6871 8.14164C17.5815 7.95279 16.4185 7.95279 15.3129 8.14164L15.2556 8.15168C15.1198 8.17498 14.9947 8.23686 14.8969 8.32908C14.7991 8.42131 14.7332 8.53952 14.7081 8.66802L14.3728 10.3838C13.6107 10.657 12.901 11.0466 12.2719 11.537L10.5338 10.9523C10.4039 10.9088 10.263 10.9038 10.13 10.9379C9.99694 10.972 9.878 11.0436 9.78897 11.1432L9.75077 11.1854C9.01597 12.0053 8.44306 12.9438 8.05942 13.9559L8.04032 14.0081C7.94483 14.2593 8.02335 14.5405 8.23768 14.7153L9.64466 15.8524C9.57888 16.2301 9.54704 16.6159 9.54704 16.9996C9.54704 17.3854 9.57888 17.7711 9.64466 18.1468L8.23768 19.2839C8.13284 19.3689 8.0578 19.4821 8.02255 19.6084C7.9873 19.7347 7.9935 19.8682 8.04032 19.9911L8.05942 20.0434C8.44353 21.0559 9.01227 21.9901 9.75077 22.8139L9.78897 22.8561C9.87821 22.9554 9.99716 23.0268 10.1301 23.0609C10.2631 23.095 10.4039 23.0901 10.5338 23.0469L12.2719 22.4623C12.9043 22.9545 13.6109 23.3443 14.3728 23.6155L14.7081 25.3312C14.7332 25.4597 14.7991 25.5779 14.8969 25.6702C14.9947 25.7624 15.1198 25.8243 15.2556 25.8476L15.3129 25.8576C16.4287 26.0475 17.5713 26.0475 18.6871 25.8576L18.7444 25.8476C18.8802 25.8243 19.0053 25.7624 19.1031 25.6702C19.2009 25.5779 19.2668 25.4597 19.2919 25.3312L19.6251 23.6235C20.393 23.351 21.1079 22.96 21.7409 22.4663L23.4662 23.0469C23.5961 23.0904 23.737 23.0955 23.87 23.0614C24.0031 23.0273 24.122 22.9557 24.211 22.8561L24.2492 22.8139C24.9877 21.9881 25.5565 21.0559 25.9406 20.0434L25.9597 19.9911C26.0552 19.744 25.9767 19.4627 25.7623 19.2879ZM22.8656 16.0775C22.9186 16.3808 22.9462 16.6922 22.9462 17.0036C22.9462 17.315 22.9186 17.6264 22.8656 17.9298L22.7255 18.7355L24.3108 20.0192C24.0705 20.5434 23.7671 21.0396 23.4067 21.4979L21.4374 20.8369L20.771 21.3553C20.2639 21.7491 19.6994 22.0585 19.0882 22.2754L18.2797 22.5627L17.8998 24.5115C17.3004 24.5758 16.6953 24.5758 16.096 24.5115L15.7161 22.5587L14.9139 22.2674C14.3091 22.0504 13.7468 21.741 13.2438 21.3493L12.5775 20.8289L10.5954 21.4959C10.2346 21.0358 9.93327 20.5396 9.69135 20.0172L11.2936 18.7214L11.1556 17.9178C11.1047 17.6184 11.0771 17.309 11.0771 17.0036C11.0771 16.6963 11.1026 16.3889 11.1556 16.0895L11.2936 15.2859L9.69135 13.99C9.93115 13.4657 10.2346 12.9714 10.5954 12.5114L12.5775 13.1784L13.2438 12.658C13.7468 12.2663 14.3091 11.9569 14.9139 11.7399L15.7182 11.4526L16.0981 9.49977C16.6944 9.43548 17.3035 9.43548 17.9019 9.49977L18.2818 11.4486L19.0903 11.7359C19.6994 11.9528 20.266 12.2622 20.7732 12.656L21.4395 13.1744L23.4089 12.5134C23.7696 12.9734 24.071 13.4697 24.3129 13.992L22.7277 15.2758L22.8656 16.0775ZM17.0021 13.2668C14.9394 13.2668 13.2672 14.8499 13.2672 16.8027C13.2672 18.7555 14.9394 20.3387 17.0021 20.3387C19.0648 20.3387 20.7371 18.7555 20.7371 16.8027C20.7371 14.8499 19.0648 13.2668 17.0021 13.2668ZM18.6829 18.3939C18.4624 18.6032 18.2004 18.7692 17.912 18.8823C17.6235 18.9954 17.3143 19.0533 17.0021 19.0529C16.3676 19.0529 15.7713 18.8178 15.3214 18.3939C15.1003 18.1852 14.925 17.9372 14.8055 17.6641C14.6861 17.391 14.6248 17.0983 14.6253 16.8027C14.6253 16.202 14.8736 15.6375 15.3214 15.2115C15.7713 14.7856 16.3676 14.5526 17.0021 14.5526C17.6366 14.5526 18.233 14.7856 18.6829 15.2115C18.9039 15.4202 19.0792 15.6683 19.1987 15.9413C19.3182 16.2144 19.3794 16.5072 19.3789 16.8027C19.3789 17.4034 19.1306 17.968 18.6829 18.3939Z" fill="black"/>
</svg>
