<svg width="34" height="34" viewBox="0 0 34 34" fill="none" xmlns="http://www.w3.org/2000/svg">
<mask id="path-1-inside-1_140_152" fill="white">
<path d="M0 17C0 7.61116 7.61116 0 17 0C26.3888 0 34 7.61116 34 17C34 26.3888 26.3888 34 17 34C7.61116 34 0 26.3888 0 17Z"/>
</mask>
<path d="M0 17C0 7.61116 7.61116 0 17 0C26.3888 0 34 7.61116 34 17C34 26.3888 26.3888 34 17 34C7.61116 34 0 26.3888 0 17Z" fill="#F5A161"/>
<path d="M-1 17C-1 7.05887 7.05887 -1 17 -1C26.9411 -1 35 7.05887 35 17H33C33 8.16344 25.8366 1 17 1C8.16344 1 1 8.16344 1 17H-1ZM35 18C35 27.9411 26.9411 36 17 36C7.05887 36 -1 27.9411 -1 18L1 17C1 25.2843 8.16344 32 17 32C25.8366 32 33 25.2843 33 17L35 18ZM17 36C7.05887 36 -1 27.9411 -1 18V17C-1 7.05887 7.05887 -1 17 -1V1C8.16344 1 1 8.16344 1 17C1 25.2843 8.16344 32 17 32V36ZM17 -1C26.9411 -1 35 7.05887 35 17V18C35 27.9411 26.9411 36 17 36V32C25.8366 32 33 25.2843 33 17C33 8.16344 25.8366 1 17 1V-1Z" fill="black" mask="url(#path-1-inside-1_140_152)"/>
<path d="M17 11L21.1381 15.045L20.1953 15.9666L17.6667 13.4949V19.7416H16.3333V13.4949L13.8047 15.9666L12.8619 15.045L17 11ZM11 21.045V18.4383H12.3333V21.045C12.3333 21.4049 12.6318 21.6967 13 21.6967H21C21.3682 21.6967 21.6667 21.4049 21.6667 21.045V18.4383H23V21.045C23 22.1247 22.1046 23 21 23H13C11.8954 23 11 22.1247 11 21.045Z" fill="black"/>
</svg>
