<svg width="34" height="34" viewBox="0 0 34 34" fill="none" xmlns="http://www.w3.org/2000/svg">
<mask id="path-1-inside-1_283_232" fill="white">
<path d="M0 17C0 7.61116 7.61116 0 17 0C26.3888 0 34 7.61116 34 17C34 26.3888 26.3888 34 17 34C7.61116 34 0 26.3888 0 17Z"/>
</mask>
<path d="M0 17C0 7.61116 7.61116 0 17 0C26.3888 0 34 7.61116 34 17C34 26.3888 26.3888 34 17 34C7.61116 34 0 26.3888 0 17Z" fill="#F3616F"/>
<path d="M-1 17C-1 7.05887 7.05887 -1 17 -1C26.9411 -1 35 7.05887 35 17H33C33 8.16344 25.8366 1 17 1C8.16344 1 1 8.16344 1 17H-1ZM35 18C35 27.9411 26.9411 36 17 36C7.05887 36 -1 27.9411 -1 18L1 17C1 25.2843 8.16344 32 17 32C25.8366 32 33 25.2843 33 17L35 18ZM17 36C7.05887 36 -1 27.9411 -1 18V17C-1 7.05887 7.05887 -1 17 -1V1C8.16344 1 1 8.16344 1 17C1 25.2843 8.16344 32 17 32V36ZM17 -1C26.9411 -1 35 7.05887 35 17V18C35 27.9411 26.9411 36 17 36V32C25.8366 32 33 25.2843 33 17C33 8.16344 25.8366 1 17 1V-1Z" fill="black" mask="url(#path-1-inside-1_283_232)"/>
<path d="M23.3281 16.332H10.6719C10.5945 16.332 10.5312 16.3953 10.5312 16.4727V17.5273C10.5312 17.6047 10.5945 17.668 10.6719 17.668H23.3281C23.4055 17.668 23.4688 17.6047 23.4688 17.5273V16.4727C23.4688 16.3953 23.4055 16.332 23.3281 16.332Z" fill="black"/>
</svg>
