<svg width="34" height="34" viewBox="0 0 34 34" fill="none" xmlns="http://www.w3.org/2000/svg">
<mask id="path-1-inside-1_283_228" fill="white">
<path d="M0 17C0 7.61116 7.61116 0 17 0C26.3888 0 34 7.61116 34 17C34 26.3888 26.3888 34 17 34C7.61116 34 0 26.3888 0 17Z"/>
</mask>
<path d="M0 17C0 7.61116 7.61116 0 17 0C26.3888 0 34 7.61116 34 17C34 26.3888 26.3888 34 17 34C7.61116 34 0 26.3888 0 17Z" fill="#76AFF1"/>
<path d="M-1 17C-1 7.05887 7.05887 -1 17 -1C26.9411 -1 35 7.05887 35 17H33C33 8.16344 25.8366 1 17 1C8.16344 1 1 8.16344 1 17H-1ZM35 18C35 27.9411 26.9411 36 17 36C7.05887 36 -1 27.9411 -1 18L1 17C1 25.2843 8.16344 32 17 32C25.8366 32 33 25.2843 33 17L35 18ZM17 36C7.05887 36 -1 27.9411 -1 18V17C-1 7.05887 7.05887 -1 17 -1V1C8.16344 1 1 8.16344 1 17C1 25.2843 8.16344 32 17 32V36ZM17 -1C26.9411 -1 35 7.05887 35 17V18C35 27.9411 26.9411 36 17 36V32C25.8366 32 33 25.2843 33 17C33 8.16344 25.8366 1 17 1V-1Z" fill="black" mask="url(#path-1-inside-1_283_228)"/>
<path d="M22.0625 13.2031L21.32 12.3393C20.6904 11.6781 19.9329 11.1519 19.0936 10.7927C18.2542 10.4335 17.3505 10.2489 16.4375 10.25C12.7109 10.25 9.6875 13.2734 9.6875 17C9.6875 20.7266 12.7109 23.75 16.4375 23.75C17.8336 23.7499 19.1953 23.3172 20.3353 22.5113C21.4752 21.7054 22.3375 20.5661 22.8032 19.25" stroke="black" stroke-width="0.75" stroke-miterlimit="10" stroke-linecap="round"/>
<path d="M24.3123 11.425V15.3126C24.3123 15.4618 24.253 15.6048 24.1475 15.7103C24.042 15.8158 23.8989 15.8751 23.7498 15.8751H19.8622C19.3609 15.8751 19.1098 15.2693 19.4642 14.915L23.3521 11.027C23.7065 10.6719 24.3123 10.9237 24.3123 11.425Z" fill="black"/>
</svg>
