<svg width="29" height="32" viewBox="0 0 29 32" fill="none" xmlns="http://www.w3.org/2000/svg">
<path d="M0 24.8888V23.111C0 19.339 1.52767 15.7215 4.24695 13.0543C6.96623 10.3871 10.6544 8.88867 14.5 8.88867C18.3456 8.88867 22.0338 10.3871 24.7531 13.0543C27.4723 15.7215 29 19.339 29 23.111V24.8888C29 26.7748 28.2362 28.5836 26.8765 29.9172C25.5169 31.2508 23.6728 32 21.75 32H7.25C5.32718 32 3.48311 31.2508 2.12348 29.9172C0.763837 28.5836 0 26.7748 0 24.8888Z" fill="#F9AF01"/>
<path d="M9.96875 0H19.0312C19.7523 0 20.4438 0.280955 20.9537 0.781057C21.4636 1.28116 21.75 1.95944 21.75 2.6667C21.75 4.31695 21.0816 5.89961 19.892 7.06652C18.7023 8.23342 17.0887 8.88899 15.4063 8.88899H13.5938C11.9113 8.88899 10.2977 8.23342 9.10804 7.06652C7.91836 5.89961 7.25 4.31695 7.25 2.6667C7.25 1.95944 7.53644 1.28116 8.0463 0.781057C8.55617 0.280955 9.24769 0 9.96875 0Z" fill="#F9AF01"/>
<path d="M9.0625 7.4668H19.9375V9.60015H9.0625V7.4668Z" fill="#DC6C02"/>
<path d="M16.675 18.4003H17.7625C17.7625 16.8872 16.2645 16.1971 15.0437 16.0381V14.9336H13.9562V16.0381C12.7355 16.1971 11.2375 16.8872 11.2375 18.4003C11.2375 19.8435 12.6871 20.5939 13.9562 20.763V23.4137C13.1689 23.2798 12.325 22.8675 12.325 22.1337H11.2375C11.2375 23.5145 12.5561 24.3305 13.9562 24.4996V25.6004H15.0437V24.4964C16.2645 24.3374 17.7625 23.6468 17.7625 22.1337C17.7625 20.6206 16.2645 19.9304 15.0437 19.7715V17.1203C15.7669 17.2478 16.675 17.6222 16.675 18.4003ZM12.325 18.4003C12.325 17.6222 13.2331 17.2478 13.9562 17.1203V19.6798C13.2108 19.5448 12.325 19.1454 12.325 18.4003ZM16.675 22.1337C16.675 22.9118 15.7669 23.2862 15.0437 23.4137V20.8537C15.7669 20.9811 16.675 21.3555 16.675 22.1337Z" fill="#DC6C02" stroke="#DC6C02" stroke-width="0.5"/>
</svg>
