<svg width="24" height="24" viewBox="0 0 24 24" fill="none" xmlns="http://www.w3.org/2000/svg">
<path d="M12 2.25C17.3848 2.25 21.75 6.61522 21.75 12C21.75 17.3848 17.3848 21.75 12 21.75C6.61522 21.75 2.25 17.3848 2.25 12C2.25 6.61522 6.61522 2.25 12 2.25Z" fill="#F5A161" fill-opacity="0.8" stroke="black" stroke-width="0.5"/>
<path d="M13.0601 12.0004L15.3601 9.70035C15.6501 9.41035 15.6501 8.93035 15.3601 8.64035C15.0701 8.35035 14.5901 8.35035 14.3001 8.64035L12.0001 10.9404L9.70011 8.64035C9.41011 8.35035 8.93011 8.35035 8.64011 8.64035C8.35011 8.93035 8.35011 9.41035 8.64011 9.70035L10.9401 12.0004L8.64011 14.3004C8.35011 14.5904 8.35011 15.0704 8.64011 15.3604C8.79011 15.5104 8.98011 15.5804 9.17011 15.5804C9.36011 15.5804 9.55011 15.5104 9.70011 15.3604L12.0001 13.0604L14.3001 15.3604C14.4501 15.5104 14.6401 15.5804 14.8301 15.5804C15.0201 15.5804 15.2101 15.5104 15.3601 15.3604C15.6501 15.0704 15.6501 14.5904 15.3601 14.3004L13.0601 12.0004Z" fill="black"/>
</svg>
