<svg width="39" height="24" viewBox="0 0 39 24" fill="none" xmlns="http://www.w3.org/2000/svg">
<path d="M5.87911 10V12V22C5.87911 23.1063 6.75485 24 7.83881 24H9.79851C10.8825 24 11.7582 23.1063 11.7582 22V16.4875C12.3645 16.9 13.0198 17.2375 13.7179 17.4938V19C13.7179 19.55 14.1589 20 14.6978 20C15.2367 20 15.6776 19.55 15.6776 19V17.9438C16.0022 17.9813 16.3268 18 16.6575 18C16.9882 18 17.3127 17.9813 17.6373 17.9438V19C17.6373 19.55 18.0783 20 18.6172 20C19.1561 20 19.597 19.55 19.597 19V17.4875C20.2952 17.2375 20.9504 16.9 21.5567 16.4813V22C21.5567 23.1063 22.4325 24 23.5164 24H25.4761C26.5601 24 27.4358 23.1063 27.4358 22V12L29.3955 14V17.0938C29.3955 17.6875 29.567 18.2625 29.8916 18.7563L32.4576 22.6875C32.9965 23.5063 33.8967 24 34.8643 24C36.2423 24 37.4303 23.0063 37.6998 21.625L38.943 15.275C39.1022 14.4625 38.9246 13.6188 38.453 12.9438L38.2142 12.6V7.5C38.2142 6.66875 37.5589 6 36.7444 6C35.9299 6 35.2747 6.66875 35.2747 7.5V8.4L32.035 3.76875C30.3754 1.40625 27.7053 0 24.8576 0H16.6575H15.6776H11.7582H8.81866C4.7584 0 1.46978 3.35625 1.46978 7.5V10.875C0.575663 11.6125 0 12.7375 0 14V15.1C0 15.6 0.391941 16 0.881866 16C2.82932 16 4.40933 14.3875 4.40933 12.4V12V10V7.5C4.40933 5.98125 5.15034 4.6375 6.27717 3.81875C6.01996 4.49375 5.87911 5.23125 5.87911 6V10ZM34.2948 17C34.2948 16.7348 34.398 16.4804 34.5818 16.2929C34.7655 16.1054 35.0148 16 35.2747 16C35.5345 16 35.7838 16.1054 35.9675 16.2929C36.1513 16.4804 36.2545 16.7348 36.2545 17C36.2545 17.2652 36.1513 17.5196 35.9675 17.7071C35.7838 17.8946 35.5345 18 35.2747 18C35.0148 18 34.7655 17.8946 34.5818 17.7071C34.398 17.5196 34.2948 17.2652 34.2948 17ZM10.2027 6.4125C9.94549 6.15 9.79851 5.7875 9.79851 5.4125C9.79851 4.63125 10.417 4 11.1826 4H22.1324C22.8979 4 23.5164 4.63125 23.5164 5.4125C23.5164 5.7875 23.3695 6.15 23.1122 6.4125L21.6792 7.875C20.3442 9.2375 18.5376 10 16.6575 10C14.7774 10 12.9708 9.2375 11.6419 7.88125L10.2088 6.41875L10.2027 6.4125Z" fill="#F9AF01"/>
<path d="M10.2027 6.4125C9.94549 6.15 9.79851 5.7875 9.79851 5.4125C9.79851 4.63125 10.417 4 11.1826 4H22.1324C22.8979 4 23.5164 4.63125 23.5164 5.4125C23.5164 5.7875 23.3695 6.15 23.1122 6.4125L21.6792 7.875C20.3442 9.2375 18.5376 10 16.6575 10C14.7774 10 12.9708 9.2375 11.6419 7.88125L10.2088 6.41875L10.2027 6.4125Z" fill="#DC6C02"/>
</svg>
