<svg width="48" height="43" viewBox="0 0 48 43" fill="none" xmlns="http://www.w3.org/2000/svg">
<path fill-rule="evenodd" clip-rule="evenodd" d="M38 42.5001C40.2091 42.5001 42 40.7093 42 38.5001V26.5001C42 25.2411 41.4072 24.0556 40.4 23.3001L26.4 12.8001C24.9778 11.7335 23.0222 11.7335 21.6 12.8001L7.6 23.3001C6.59278 24.0556 6 25.2411 6 26.5001V38.5001C6 40.7093 7.79086 42.5001 10 42.5001H18V34.5001C18 32.291 19.7909 30.5001 22 30.5001H26C28.2091 30.5001 30 32.291 30 34.5001V42.5001H38Z" fill="#F9AF01"/>
<path d="M48 19.0513C48 21.5465 45.1313 22.9513 43.1601 21.4212L26.4528 8.4521C25.0095 7.33176 22.9905 7.33176 21.5472 8.4521L4.83985 21.4212C2.86874 22.9513 0 21.5465 0 19.0513V19.0513C0 18.1244 0.428367 17.2496 1.1605 16.6813L21.5472 0.856097C22.9905 -0.26424 25.0095 -0.264239 26.4528 0.856098L46.8395 16.6813C47.5716 17.2496 48 18.1244 48 19.0513V19.0513Z" fill="#DC6C02"/>
<path d="M30 42.5001V34.5001C30 32.291 28.2091 30.5001 26 30.5001H22C19.7909 30.5001 18 32.291 18 34.5001V42.5001H30Z" fill="#3272B3"/>
</svg>
