<svg width="40" height="43" viewBox="0 0 40 43" fill="none" xmlns="http://www.w3.org/2000/svg">
<rect width="40" height="43" rx="4" fill="#F9AF01"/>
<path d="M15.0431 31.3117H34.8707V35.2363H15.0431V31.3117ZM15.0431 19.5379H34.8707V23.4625H15.0431V19.5379ZM15.0431 7.76406H34.8707V11.6887H15.0431V7.76406ZM9.09479 5.80176V13.651H7.11203V7.76406H5.12927V5.80176H9.09479ZM7.11203 21.9299V23.4625H11.0775V25.4248H5.12927V20.9488L9.09479 19.1081V17.5756H5.12927V15.6133H11.0775V20.0893L7.11203 21.9299ZM11.0775 27.3871V37.1986H5.12927V35.2363H9.09479V33.274H5.12927V31.3117H9.09479V29.3494H5.12927V27.3871H11.0775Z" fill="#DC6C02"/>
</svg>
